<?xml version="1.0" standalone="no"?>
<!DOCTYPE svg PUBLIC "-//W3C//DTD SVG 1.1//EN" "http://www.w3.org/Graphics/SVG/1.1/DTD/svg11.dtd" >
<svg xmlns="http://www.w3.org/2000/svg">
<metadata>
<json>
<![CDATA[
{
	"fontFamily": "fooding",
	"majorVersion": 1,
	"minorVersion": 0,
	"fontURL": "http://chinafooding.com/fonts",
	"copyright": "Fooding",
	"designer": "Yan Zhongsheng",
	"license": "",
	"description": "font,css\nFont generated by IcoMoon.",
	"version": "Version 1.0",
	"fontId": "fooding",
	"psName": "fooding",
	"subFamily": "Regular",
	"fullName": "fooding"
}
]]>
</json>
</metadata>
<defs>
<font id="fooding" horiz-adv-x="1024">
<font-face units-per-em="1024" ascent="960" descent="-64" />
<missing-glyph horiz-adv-x="1024" />
<glyph unicode="&#x20;" horiz-adv-x="512" d="" />
<glyph unicode="&#xe012;" glyph-name="tree-leaf" data-tags="树子节点" d="M512 959.999q104.364 0 199.090-40.546t163.273-109.091 109.091-163.273 40.546-199.090-40.546-199.090-109.091-163.273-163.273-109.091-199.090-40.546-199.090 40.546-163.273 109.091-109.091 163.273-40.546 199.090 40.546 199.090 109.091 163.273 163.273 109.091 199.090 40.546zM512 866.909q-85.091 0-162.727-33.273t-133.636-89.272-89.272-133.636-33.273-162.727 33.273-162.727 89.272-133.636 133.636-89.272 162.727-33.273 162.727 33.273 133.636 89.272 89.272 133.636 33.273 162.727-33.273 162.727-89.272 133.636-133.636 89.272-162.727 33.273zM512 634.183q77.091 0 131.636-54.545t54.545-131.636-54.545-131.636-131.636-54.545-131.636 54.545-54.545 131.636 54.545 131.636 131.636 54.545zM512 541.091q-38.545 0-65.818-27.273t-27.273-65.818 27.273-65.818 65.818-27.273 65.818 27.273 27.273 65.818-27.273 65.818-65.818 27.273z" />
<glyph unicode="&#xe055;" glyph-name="expand" data-tags="展开" d="M921.601 473.601q0-21.2-14.801-36l-358.4-358.4q-15.2-15.2-36.401-15.2t-36.401 15.2l-358.4 358.4q-14.801 14.801-14.801 36t15 36.2 36.2 15q21.6 0 36.401-14.801l322.001-322.001 322.001 322.001q14.801 14.801 36.401 14.801 22.001 0 36.6-14.6t14.6-36.6zM921.601 780.801q0-21.2-14.801-36l-358.4-358.4q-15.2-15.2-36.401-15.2t-36.401 15.2l-358.4 358.4q-14.801 14.801-14.801 36t15 36.2 36.2 15q21.6 0 36.401-14.801l322.001-322.001 322.001 322.001q14.801 14.801 36.401 14.801 22.001 0 36.6-14.6t14.6-36.6z" />
<glyph unicode="&#xe056;" glyph-name="collapse" data-tags="收起" d="M68.266 420.266q0 22.967 16.034 39l388.267 388.267q16.467 16.467 39.434 16.467t39.434-16.467l388.267-388.267q16.034-16.034 16.034-39t-16.25-39.217-39.217-16.25q-23.4 0-39.434 16.034l-348.834 348.834-348.834-348.834q-16.034-16.034-39.434-16.034-23.834 0-39.65 15.817t-15.817 39.65zM68.266 87.466q0 22.967 16.034 39l388.267 388.267q16.467 16.467 39.434 16.467t39.434-16.467l388.267-388.267q16.034-16.034 16.034-39t-16.25-39.217-39.217-16.25q-23.4 0-39.434 16.034l-348.834 348.834-348.834-348.834q-16.034-16.034-39.434-16.034-23.834 0-39.65 15.817t-15.817 39.65z" />
<glyph unicode="&#xe900;" glyph-name="radio-checked" data-tags="已选中" d="M512 960c-282.77 0-512-229.23-512-512s229.23-512 512-512 512 229.23 512 512-229.23 512-512 512zM512 64c-212.078 0-384 171.922-384 384s171.922 384 384 384c212.078 0 384-171.922 384-384s-171.922-384-384-384zM320 448c0 106.039 85.961 192 192 192s192-85.961 192-192c0-106.039-85.961-192-192-192s-192 85.961-192 192z" />
<glyph unicode="&#xe901;" glyph-name="radio-unchecked" data-tags="未选中" d="M512 960c-282.77 0-512-229.23-512-512s229.23-512 512-512 512 229.23 512 512-229.23 512-512 512zM512 64c-212.078 0-384 171.922-384 384s171.922 384 384 384c212.078 0 384-171.922 384-384s-171.922-384-384-384z" />
<glyph unicode="&#xe902;" glyph-name="asc" data-tags="列表页_顺序" d="M339.158-64c-23.471 0-42.515 19.045-42.515 42.515v935.399c0 18.195 11.566 34.353 28.829 40.306 17.436 5.78 36.308 0.173 47.453-14.37l340.145-442.274c14.287-18.623 10.8-45.237-7.823-59.613-18.541-14.115-45.326-10.716-59.613 7.823l-263.953 343.039v-810.31c0-23.471-19.045-42.515-42.515-42.515z" />
<glyph unicode="&#xe903;" glyph-name="desc" data-tags="列表页_倒序" d="M338.558-64c-4.608 0-9.217 0.767-13.741 2.221-17.324 5.889-28.927 22.188-28.927 40.447v938.664c0 23.552 19.116 42.668 42.668 42.668s42.668-19.116 42.668-42.668v-813.134l264.875 344.318c14.336 18.772 41.132 22.1 59.821 7.852 18.688-14.419 22.188-41.132 7.852-59.821l-341.329-443.817c-8.275-10.836-20.908-16.723-33.876-16.723z" />
<glyph unicode="&#xe904;" glyph-name="sort" data-tags="列表页_默认" d="M385.184 953.537c-23.334 0-42.272-18.938-42.272-42.272v-820.673l-264.625 291.086c-15.726 17.416-42.441 18.515-59.773 2.874-17.246-15.726-18.515-42.441-2.874-59.689l338.177-371.995c8.286-8.962 19.7-13.865 31.367-13.865 5.156 0 10.315 0.929 15.218 2.791 16.317 6.341 27.054 21.982 27.054 39.483v929.99c0 23.334-18.938 42.272-42.272 42.272zM1008.275 567.674l-338.177 371.995c-11.751 12.85-30.268 17.332-46.5 11.075-16.317-6.341-27.054-21.982-27.054-39.483v-929.99c0-23.334 18.938-42.272 42.272-42.272s42.272 18.938 42.272 42.272v820.673l264.625-291.086c15.81-17.502 42.525-18.601 59.773-2.874 17.246 15.64 18.515 42.357 2.791 59.689z" />
<glyph unicode="&#xe905;" glyph-name="profile" data-tags="个人信息" horiz-adv-x="1152" d="M800.004 864.007h320.006c17.664 0 32.001 14.336 32.001 32.001s-14.336 32.001-32.001 32.001h-320.006c-17.664 0-32.001-14.336-32.001-32.001s14.336-32.001 32.001-32.001zM1120.010 480.001h-320.006c-17.664 0-32.001-14.336-32.001-32.001s14.336-32.001 32.001-32.001h320.006c17.664 0 32.001 14.336 32.001 32.001s-14.336 32.001-32.001 32.001zM1120.010 31.993h-1088.019c-17.664 0-32.001-14.336-32.001-32.001s14.336-32.001 32.001-32.001h1088.019c17.664 0 32.001 14.336 32.001 32.001s-14.336 32.001-32.001 32.001zM95.991 282.237h512.009c17.728 0 32.001 14.336 32.001 32.001 0 119.49-73.153 222.148-177.027 265.669 48.897 34.817 81.025 91.65 81.025 156.099 0 105.858-86.146 192.003-192.003 192.003s-192.003-86.146-192.003-192.003c0-64.449 32.193-121.282 81.025-156.099-103.81-43.585-177.027-146.179-177.027-265.669 0-17.664 14.4-32.001 32.001-32.001z" />
<glyph unicode="&#xe906;" glyph-name="flow-chart" data-tags="列表页_查看流程图" d="M292.571 850.286h438.858v-73.144h-438.858v73.144zM292.571 118.856h438.858v-73.144h-438.858v73.144zM292.571 850.286h73.144v-804.573h-73.144v804.573zM146.285 594.271l146.263-146.263-146.263-146.263-146.263 146.263 146.263 146.263zM731.429 960h292.571v-292.571h-292.571v292.571zM731.429 228.571h292.571v-292.571h-292.571v292.571z" />
<glyph unicode="&#xe907;" glyph-name="logs" data-tags="导航_日志" d="M761.757 289.003h-499.512v49.951h499.512v-49.951zM761.757 438.857h-499.512v49.951h499.512v-49.951zM761.757 588.711h-499.512v49.951h499.512v-49.951zM312.196 738.564v199.804h49.951v-199.804h-49.951zM661.854 738.564v199.804h49.951v-199.804h-49.951zM412.097 863.442h199.804v-49.951h-199.804v49.951zM861.658-85.631h-509.852l-264.392 264.392v609.755c0 41.309 33.618 74.927 74.927 74.927h99.903v-49.951h-99.903c-13.787 0-24.976-11.189-24.976-24.976v-589.074l235.121-235.121h489.173c13.787 0 24.976 11.189 24.976 24.976v799.219c0 13.787-11.189 24.976-24.976 24.976h-99.903v49.951h99.903c41.309 0 74.927-33.618 74.927-74.927v-799.219c0-41.309-33.618-74.927-74.927-74.927zM387.122-60.655h-49.951v199.804c0 13.787-11.189 24.976-24.976 24.976h-199.804v49.951h199.804c41.309 0 74.927-33.618 74.927-74.927v-199.804z" />
<glyph unicode="&#xe908;" glyph-name="comment" data-tags="消息" horiz-adv-x="1186" d="M268.756 682.905h134.402v-134.51h-134.402v134.51zM552.951 682.905h134.347v-134.51h-134.347v134.51zM837.254 682.905h134.347v-134.51h-134.347v134.51zM1074.461 960h-962.922c-55.495 0-100.639-45.143-100.639-100.639v-561.723c0-55.44 45.143-100.53 100.639-100.53h140.201v-261.108l347.981 261.108h474.741c55.495 0 100.639 45.089 100.639 100.53v561.723c0 55.495-45.143 100.639-100.639 100.639zM1134.454 297.585c0-33.004-26.935-59.885-59.992-59.885h-488.29l-293.786-220.462v220.462h-180.846c-33.113 0-59.992 26.881-59.992 59.885v561.777c0 33.059 26.935 59.992 59.992 59.992h962.922c33.113 0 59.992-26.935 59.992-59.992v-561.777z" />
<glyph unicode="&#xe909;" glyph-name="angle-up" data-tags="上箭头（默认）" d="M511.964 655.499l382.805-382.734-50.55-50.55-332.257 332.183-332.183-332.183-50.55 50.55z" />
<glyph unicode="&#xe90a;" glyph-name="close-lg" data-tags="关闭" d="M967.007 959.935l56.978-56.978-966.957-966.957-56.978 56.978 966.957 966.957zM56.995 960.001l966.957-966.957-56.978-56.978-966.957 966.957 56.978 56.978z" />
<glyph unicode="&#xe90b;" glyph-name="assign-logistics" data-tags="列表页_指派物流员" d="M449.934 384.066c-152.655 0-276.858 124.203-276.858 276.925s124.203 276.925 276.858 276.925c152.725 0 276.996-124.203 276.996-276.925s-124.27-276.925-276.996-276.925zM449.934 868.687c-114.44 0-207.623-93.187-207.623-207.694s93.187-207.694 207.623-207.694c114.507 0 207.764 93.187 207.764 207.694s-93.254 207.694-207.764 207.694zM588.468 384.066c57.046 0 108.901-20.633 150.301-53.794l58.014 41.47c-55.315 50.123-127.941 81.555-208.318 81.555h-276.925c-171.762 0-311.541-139.779-311.541-311.541v-173.079h69.232v173.079c0 133.615 108.695 242.31 242.31 242.31h276.925zM515.495-41.914l-228.464 228.394 49.017 49.017 186.923-186.994 460.736 329.126 40.293-56.354z" />
<glyph unicode="&#xe90c;" glyph-name="receipt" data-tags="列表页_收货" d="M475.564 520.397c-3.869 0-7.813 0.656-11.537 1.826l-438.107 146.035c-14.020 4.746-23.803 17.379-24.899 32.127-1.022 14.676 6.938 28.549 20.080 35.194l438.107 219.053c9.565 4.746 20.811 5.111 30.668 0.949l511.123-219.053c14.238-6.133 23-20.446 22.051-35.852-0.949-15.481-11.537-28.623-26.432-32.786l-511.123-146.035c-3.213-0.949-6.572-1.461-9.93-1.461zM132.599 709.732l343.768-114.564 401.524 114.71-401.159 171.883-344.133-172.029zM475.564-63.744c-5.623 0-11.172 1.314-16.356 3.869l-438.107 219.053c-12.34 6.207-20.153 18.838-20.153 32.639v511.123c0 11.756 5.623 22.782 15.188 29.573 9.492 7.010 21.686 8.615 32.93 5.039l438.107-146.035c14.822-4.965 24.899-18.912 24.899-34.61v-584.142c0-12.633-6.572-24.387-17.305-31.106-5.842-3.578-12.559-5.402-19.203-5.402zM73.966 214.38l365.088-182.545v498.783l-365.088 121.72v-437.96zM475.564-63.744c-7.010 0-14.020 2.045-20.080 6.061-10.295 6.717-16.43 18.182-16.43 30.448v584.142c0 16.356 10.807 30.594 26.506 35.049l511.123 146.035c11.026 3.359 22.854 0.949 31.981-5.914s14.531-17.67 14.531-29.133v-511.123c0-14.604-8.69-27.821-22.125-33.588l-511.123-219.053c-4.6-1.898-9.492-2.92-14.385-2.92zM512.072 529.378v-501.266l438.107 187.801v438.616l-438.107-125.152z" />
<glyph unicode="&#xe90d;" glyph-name="word" data-tags="任务" horiz-adv-x="859" d="M322.018 233.37h357.781v-71.576h-357.781v71.576zM178.867 233.37h71.576v-71.576h-71.576v71.576zM322.018 376.569h357.781v-71.576h-357.781v71.576zM178.867 376.569h71.576v-71.576h-71.576v71.576zM322.018 591.2h357.781v-71.527h-357.781v71.527zM178.867 591.2h71.576v-71.527h-71.576v71.527zM858.327 678.337c0 0.58-0.193 1.208-0.29 1.885-0.87 2.755-1.981 5.365-4.060 7.249l-267.792 267.889c-1.981 2.078-4.543 3.19-7.249 3.866-0.677 0.29-1.208 0.483-2.078 0.483-0.58 0.097-1.257 0.29-1.933 0.29h-459.031c-63.988 0-115.894-51.906-115.894-115.894v-792.068c0-63.891 51.906-115.99 115.894-115.99h626.879c63.988 0 115.894 52.099 115.894 115.99v624.124c0.048 0.773-0.242 1.402-0.338 2.175v0zM804.054 692.111h-129.136c-46.251 0-83.9 37.648-83.9 83.996v129.329l213.035-213.325zM742.772-31.958h-626.879c-46.348 0-83.851 37.842-83.851 83.996v792.068c0 46.348 37.503 83.996 83.851 83.996h442.986v-151.995c0-63.891 52.099-115.894 115.99-115.894h151.802v-608.175c0-46.154-37.648-83.996-83.9-83.996v0z" />
<glyph unicode="&#xe90e;" glyph-name="to-paid-1" data-tags="列表页_待付-10" d="M759.667 832.522c47.127 12.383 99.28 0.708 136.146-36.16s48.471-88.947 36.16-136.076l54.699-54.699c37.362 78.828 24.272 175.773-40.83 240.874-65.172 65.101-162.116 78.192-240.874 40.83l54.699-54.77zM92.026 660.215c-12.313 47.127-0.708 99.28 36.23 136.146 36.796 36.866 89.019 48.543 136.146 36.16l54.699 54.699c-78.828 37.362-175.773 24.272-240.874-40.83-65.172-65.172-78.192-162.116-40.9-240.874l54.699 54.699zM512-11.954c-234.153 0-424.574 190.421-424.574 424.574s190.421 424.574 424.574 424.574 424.574-190.421 424.574-424.574-190.421-424.574-424.574-424.574zM512 766.43c-195.091 0-353.811-158.72-353.811-353.811s158.72-353.811 353.811-353.811 353.811 158.72 353.811 353.811-158.72 353.811-353.811 353.811zM212.507 163.128l50.036-50.036-150.109-150.109-50.036 50.036 150.109 150.109zM811.49 163.125l150.109-150.109-50.036-50.036-150.109 150.109 50.036 50.036zM523.463 219.933c-96.236 0-145.134 51.373-147.397 53.851-13.303 14.295-12.455 36.726 1.91 50.029 14.295 13.375 36.654 12.455 50.029-1.91 1.274-1.274 40.476-40.122 123.056-29.367 40.406 5.095 48.897 24.908 52.081 45.571 4.388 28.871-4.104 52.647-59.44 74.796-22.574 9.057-45.359 15.497-66.163 21.37-36.3 10.331-67.649 19.248-90.081 37.646-29.721 24.342-43.378 63.050-36.372 103.526 7.289 41.75 33.967 76.636 68.143 88.807 100.906 36.018 188.935-19.106 221.274-53.355 13.445-14.223 12.809-36.584-1.416-50.029-14.153-13.375-36.654-12.809-50.029 1.416-0.636 0.636-64.040 64.748-146.053 35.24-8.563-3.044-19.176-16.628-22.22-34.249-1.556-8.915-2.124-25.545 11.463-36.654 11.109-9.129 37.080-16.488 64.677-24.342 22.998-6.581 48.047-13.729 73.027-23.706 78.758-31.489 113.503-82.368 103.1-151.149-9.129-59.724-49.321-97.086-113.149-105.153-12.809-1.556-24.979-2.336-36.442-2.336zM512 639.057c-19.53 0-35.381 15.85-35.381 35.381v56.61c0 19.53 15.85 35.381 35.381 35.381s35.381-15.85 35.381-35.381v-56.61c0-19.53-15.85-35.381-35.381-35.381zM512 129.57c-19.53 0-35.381 15.85-35.381 35.381v56.61c0 19.53 15.85 35.381 35.381 35.381s35.381-15.85 35.381-35.381v-56.61c0-19.53-15.85-35.381-35.381-35.381z" />
<glyph unicode="&#xe90f;" glyph-name="m-write" data-tags="写邮件" d="M912.718 383.021c-19.378 0-35.105-15.727-35.105-35.105v-322.962c0-10.321-8.425-18.746-18.746-18.746h-769.913c-10.321 0-18.746 8.425-18.746 18.746v769.983c0 10.321 8.425 18.676 18.746 18.676h322.962c19.378 0 35.105 15.727 35.105 35.105s-15.727 35.105-35.175 35.105h-322.962c-49.006 0-88.885-39.879-88.885-88.885v-769.983c0-49.006 39.879-88.955 88.955-88.955h769.983c49.006 0 88.955 39.879 88.955 88.955v322.962c-0.070 19.378-15.797 35.105-35.175 35.105zM1000.059 849.21l-86.778 86.849c-24.012 23.871-62.837 23.941-86.778-0.070l-65.014-65.084 173.557-173.627 65.084 65.154c23.871 24.012 23.871 62.907-0.070 86.778zM717.91 827.584l173.682-173.634-390.451-390.561-173.682 173.634 390.451 390.561zM175.523 111.523l269.182 121.532-147.72 147.58z" />
<glyph unicode="&#xe910;" glyph-name="m-receive" data-tags="收邮件" d="M487.956 423.922c3.129-3.129 6.938-5.645 11.155-7.346 4.081-1.7 8.502-2.585 12.923-2.585s8.842 0.884 12.991 2.585c4.285 1.768 8.094 4.285 11.223 7.55l203.916 203.916c13.263 13.263 13.263 34.825 0 48.088s-34.825 13.263-48.088 0l-146.033-146.033v360.015c0 18.705-15.168 34.009-34.009 34.009-18.773 0-34.009-15.304-34.009-34.009v-360.015l-146.033 146.033c-13.263 13.263-34.825 13.263-48.088 0s-13.263-34.825 0-48.088l204.052-204.12zM1016.45 126.754l-204.052 340.086c-10.339 15.644-31.492 19.793-47.136 9.454-15.576-10.475-19.793-31.492-9.454-47.136l168.819-287.237h-276.558v-34.009c0-37.614-30.404-68.017-68.017-68.017h-136.035c-37.614 0-68.017 30.404-68.017 68.017v34.009h-276.49l168.683 287.237c10.475 15.644 6.258 36.661-9.454 47.136-15.508 10.339-36.593 6.258-47.136-9.454l-204.052-340.086c-6.938-10.475-7.55-23.942-1.564-34.961 5.849-10.951 17.412-17.889 29.928-17.889h146.509c-5.986-10.203-10.475-21.357-10.475-34.009 0-37.614 30.54-68.017 68.017-68.017h544.138c37.614 0 68.017 30.404 68.017 68.017 0 12.651-4.353 23.806-10.339 34.009h146.373c12.651 0 24.078 6.938 29.996 17.957 5.849 11.019 5.305 24.418-1.7 34.893z" />
<glyph unicode="&#xe911;" glyph-name="inbox" data-tags="收件箱" d="M716.8 499.2h-682.667c-18.842 0-34.133-15.292-34.133-34.133v-477.867c0-18.842 15.292-34.133 34.133-34.133h682.667c18.842 0 34.133 15.292 34.133 34.133v477.867c0 18.842-15.292 34.133-34.133 34.133zM615.083 430.933l-239.616-181.316-239.616 181.316h479.232zM68.267 21.333v375.125l286.583-216.883c6.144-4.642 13.38-6.895 20.617-6.895s14.473 2.253 20.617 6.895l286.583 216.883v-375.125h-614.4zM989.867 942.933h-341.47c-10.377 0-20.207-4.71-26.692-12.834l-126.089-157.833h-393.216c-18.842 0-34.133-15.292-34.133-34.133v-170.667h68.267v136.533h819.2v-477.867h-136.533v-68.267h170.667c18.842 0 34.133 15.292 34.133 34.133v716.8c0 18.842-15.292 34.133-34.133 34.133zM582.997 772.267l81.852 102.4h290.884v-102.4h-372.736z" />
<glyph unicode="&#xe912;" glyph-name="been-sent" data-tags="已发送" d="M514.060 616.94l-282.95-249.68h186.511c0.125-3.745 0.749-7.553 0.749-11.485 0-165.663-70.347-314.534-182.266-419.775 209.357 32.583 369.526 213.039 369.526 431.26h187.26l-278.83 249.68zM948.94 960h-312.225c-9.488 0-18.476-4.307-24.406-11.735l-115.29-144.315h-421.959c-17.228 0-31.21-13.982-31.21-31.21v-561.78c0-17.228 13.982-31.21 31.21-31.21h124.84c17.228 0 31.21 13.982 31.21 31.21s-13.982 31.21-31.21 31.21h-93.63v499.36h811.46v-499.36h-156.050c-17.228 0-31.21-13.982-31.21-31.21s13.982-31.21 31.21-31.21h187.26c17.228 0 31.21 13.982 31.21 31.21v717.83c0 17.29-13.982 31.21-31.21 31.21zM576.854 803.95l74.842 93.63h266.034v-93.63h-340.876z" />
<glyph unicode="&#xe913;" glyph-name="remove" data-tags="移除, 删除" d="M640.127 542.461c127.5 102.131 265.148 198.95 383.873 261.924-149.526-29.487-277.504-68.107-414.853-139.796-19.997-10.386-38.441-21.847-57.542-32.89-126.187 118.009-245.45 194.832-305.379 222.349-117.472 54.14-169.702-33.546-136.155-83.926 63.929-96.043 153.287-125.769 299.649-229.691-176.626-128.157-298.515-267.774-340.478-333.792-69.242-109.235 10.625-172.686 65.063-146.183 132.813 64.765 163.912 185.52 393.722 388.171 14.565-12.296 29.547-25.309 45.007-39.157 145.945-130.783 296.844-287.293 393.245-421.658-49.185 144.214-104.459 265.924-193.936 392.409-41.784 59.034-86.671 113.055-132.216 162.24z" />
<glyph unicode="&#xe914;" glyph-name="audit-box" data-tags="邮件审核" d="M992 946.944h-320.128c-9.728 0-18.944-4.416-25.024-12.032l-118.208-147.968h-496.64c-17.664 0-32-14.336-32-32v-512c0-17.664 14.336-32 32-32h128c17.664 0 32 14.336 32 32s-14.336 32-32 32h-96v448h896v-448h-96c-17.664 0-32-14.336-32-32s14.336-32 32-32h128c17.664 0 32 14.336 32 32v672c0 17.728-14.336 32-32 32zM610.496 786.944l76.736 96h272.768v-96h-349.504zM832 141.056h-224v153.856c59.008 34.112 96.128 97.152 96.128 166.080 0 105.92-86.208 192.064-192.128 192.064s-192.128-86.208-192.128-192.064c0-68.928 37.12-131.968 96.128-166.080v-153.856h-224c-52.928 0-96-43.072-96-96s43.072-96 96-96h640c52.928 0 96 43.072 96 96s-43.072 96-96 96zM832 13.056h-640c-17.6 0-32 14.336-32 32s14.4 32 32 32h288v258.368l-19.2 8.448c-46.72 20.48-76.928 66.496-76.928 117.12 0 70.656 57.472 128.064 128.128 128.064s128.128-57.408 128.128-128.064c0-50.688-30.208-96.64-76.928-117.12l-19.2-8.448v-258.432h288c17.6 0 32-14.336 32-32s-14.4-31.936-32-31.936z" />
<glyph unicode="&#xe915;" glyph-name="dustbin" data-tags="垃圾箱" d="M819.712 813.714l-146.286 146.286h-322.853l-146.286-146.286h-204.288v-73.143h234.569l146.286 146.286h262.29l146.286-146.286h234.569v73.143zM783.433 9.143h-542.866l-57.856 625.079-72.85-6.729 64-691.493h676.279l64 691.493-72.85 6.729zM548.897 123.989l73.131 511.969 72.405-10.343-73.131-511.969-72.405 10.343zM329.472 625.736l72.405 10.357 73.234-511.969-72.405-10.357-73.234 511.969z" />
<glyph unicode="&#xe916;" glyph-name="refresh" data-tags="详情页_版本变更" d="M688.902 448c-12.19 0-23.932 4.495-33.032 12.583-15.168 13.201-20.842 35.167-13.82 54.436l28.763 78.873c-64.997 39.717-174.936 94.209-288.471 94.209-114.77 0-204.71-57.019-267.179-169.486-7.022-12.641-22.414-17.808-35.559-12.19-13.258 5.674-20.055 20.393-15.786 34.156 97.58 315.379 351.332 419.476 682.609 261.394l22.752 62.581c6.966 19.213 25.448 32.47 46.065 32.864 22.639-0.675 39.324-11.966 47.133-30.954l95.333-232.63c9.831-23.987-0.056-51.121-23.089-63.143l-222.349-116.904c-7.416-3.82-15.392-5.787-23.37-5.787zM382.4 744.279c139.882 0 271.729-72.132 337.906-115.162 10.955-7.135 15.562-20.898 11.067-33.2l-30.954-84.883 203.080 106.793-86.962 212.35-27.977-76.963c-2.753-7.584-8.595-13.595-16.122-16.516-7.471-2.977-15.898-2.528-23.089 1.18-106.624 54.717-203.754 82.469-288.696 82.469-119.433 0-200.552-55.335-255.157-123.647 52.077 31.459 111.511 47.582 176.902 47.582zM208.249-1.418c-0.337 0-0.675 0-1.011 0-21.179 0.786-37.807 12.021-45.615 30.954l-95.333 232.63c-9.831 23.987 0.056 51.121 23.089 63.143l222.349 116.904c17.977 9.55 41.010 6.685 56.178-6.628 15.336-13.371 21.010-35.336 13.988-54.604l-28.707-78.873c64.997-39.717 174.879-94.209 288.415-94.209 114.77 0 204.71 57.019 267.179 169.486 7.022 12.641 22.303 17.921 35.559 12.19 13.258-5.674 20.055-20.393 15.786-34.156-97.635-315.324-351.277-419.363-682.609-261.337l-22.752-62.638c-7.022-19.437-24.999-32.359-45.841-32.864-0.225 0-0.449 0-0.675 0zM120.501 278.176l86.962-212.35 27.977 76.963c2.753 7.584 8.651 13.65 16.179 16.572 7.471 2.921 15.898 2.528 23.089-1.18 106.624-54.773 203.754-82.524 288.639-82.524 119.433 0 200.497 55.335 255.157 123.589-52.077-31.403-111.455-47.525-176.846-47.525-139.882 0-271.729 72.132-337.85 115.162-10.955 7.078-15.562 20.898-11.067 33.145l30.898 84.94-203.137-106.793z" />
<glyph unicode="&#xe917;" glyph-name="drafts" data-tags="草稿箱" d="M610.392 548.072c-15.96 15.848-41.776 15.904-57.68-0.056l-43.232-43.232 115.36-115.416 43.232 43.288c15.904 15.904 15.904 41.72 0 57.624l-57.68 57.792zM336.369 100.92l-115.34 115.276 259.489 259.636 115.34-115.276-259.489-259.636zM120 0l178.92 80.696-98.224 98.112zM904 896h-280.112c-8.512 0-16.576-3.864-21.896-10.528l-103.432-129.472h-378.56c-15.456 0-28-12.544-28-28v-448c0-15.456 12.544-28 28-28s28 12.544 28 28v420h728v-448h-140c-15.456 0-28-12.544-28-28s12.544-28 28-28h168c15.456 0 28 12.544 28 28v644c0 15.456-12.544 28-28 28zM570.24 756l67.144 84h238.616v-84h-305.76z" />
<glyph unicode="&#xe918;" glyph-name="folder" data-tags="我的文件夹" d="M992 912h-320.128c-9.728 0-18.944-4.416-25.024-12.032l-118.208-147.968h-496.64c-17.664 0-32-14.336-32-32v-704c0-17.664 14.336-32 32-32h960c17.664 0 32 14.336 32 32v864c0 17.664-14.336 32-32 32zM687.232 848h272.768v-96h-349.44l76.672 96zM960 688v-192h-896v192h896zM64 48v384h896v-384h-896z" />
<glyph unicode="&#xe919;" glyph-name="share" data-tags="分享" d="M988.874 347.89c-19.39 0-35.126-15.737-35.126-35.126v-245.041c0-24.026-19.53-43.627-43.627-43.627h-796.241c-24.097 0-43.627 19.6-43.627 43.627v559.982c0 24.026 19.53 43.627 43.627 43.627h244.83c19.39 0 35.126 15.737 35.126 35.126s-15.737 35.126-35.126 35.126h-244.83c-62.806 0-113.879-51.074-113.879-113.879v-559.982c0-62.806 51.074-113.879 113.879-113.879h796.241c62.806 0 113.879 51.074 113.879 113.879v245.041c0 19.46-15.737 35.126-35.126 35.126zM490.222 160.878c19.39 0 35.126 15.737 35.126 35.126v61.33c0 235.416 176.544 429.875 404.022 459.24l-113.668-243.636c-8.22-17.563-0.632-38.498 17.001-46.718 4.777-2.248 9.835-3.302 14.823-3.302 13.207 0 25.853 7.517 31.824 20.303l134.252 287.895c6.393 6.323 10.327 15.104 10.327 24.869 0 0.703-0.351 1.335-0.422 2.037 0.492 5.058 0.070 10.187-1.686 15.034-3.161 8.782-9.765 15.877-18.195 19.811l-302.858 141.207c-17.423 8.079-38.428 0.632-46.648-17.001-8.22-17.563-0.632-38.498 17.001-46.718l199.376-92.944c-237.383-53.954-415.403-266.397-415.403-520.079v-61.33c0-19.39 15.737-35.126 35.126-35.126z" />
<glyph unicode="&#xe91a;" glyph-name="mark" data-tags="标记" d="M884.657-64l-372.657 273.53-372.657-273.53v1024h745.315v-1024zM512 286.546l310.548-227.942v839.286h-621.095v-839.286l310.548 227.942z" />
<glyph unicode="&#xe91b;" glyph-name="m-move" data-tags="移动邮件" d="M992 912h-320.128c-9.728 0-18.944-4.416-25.024-12.032l-118.208-147.968h-496.64c-17.664 0-32-14.336-32-32v-704c0-17.664 14.336-32 32-32h192c17.664 0 32 14.336 32 32s-14.336 32-32 32h-160v640h896v-224c0-17.664 14.336-32 32-32s32 14.336 32 32v416c0 17.664-14.336 32-32 32zM610.56 752l76.736 96h272.704v-96h-349.44zM992 208h-445.44l86.464 108.032c11.008 13.824 8.768 33.92-4.992 44.992-13.824 11.008-33.984 8.704-45.056-5.056l-128-160c-0.448-0.512-0.256-1.28-0.64-1.856-3.648-5.12-6.336-11.2-6.336-18.048 0-0.064 0-0.064 0-0.128 0-6.848 2.688-12.928 6.4-18.112 0.384-0.576 0.192-1.344 0.64-1.856l128-160c6.272-7.872 15.616-11.968 24.96-11.968 6.976 0 14.080 2.304 19.968 6.976 13.76 11.072 16 31.168 4.992 44.992l-86.4 108.032h445.44c17.664 0 32 14.336 32 32s-14.336 32-32 32z" />
<glyph unicode="&#xe91c;" glyph-name="m-assign" data-tags="分配给" d="M580.267 275.319h-455.27l165.615 144.998c14.199 12.425 15.633 33.997 3.209 48.196-12.493 14.268-34.065 15.633-48.128 3.14l-234.018-204.8c-0.273-0.205-0.341-0.614-0.614-0.887-2.526-2.321-4.369-5.188-6.076-8.192-0.614-1.024-1.502-1.843-1.98-2.935-1.911-4.164-3.004-8.738-3.004-13.653s1.092-9.489 2.935-13.722c0.478-1.092 1.434-1.911 1.98-2.935 1.707-3.004 3.55-5.803 6.076-8.192 0.273-0.273 0.341-0.614 0.614-0.887l234.018-204.8c6.485-5.598 14.541-8.397 22.528-8.397 9.489 0 18.91 3.959 25.668 11.674 12.425 14.199 10.991 35.703-3.209 48.196l-165.615 144.93h455.27c18.842 0 34.133 15.292 34.133 34.133s-15.292 34.133-34.133 34.133zM1019.153 634.266c0.546 1.024 1.434 1.775 1.911 2.799 1.775 4.164 2.935 8.806 2.935 13.722s-1.161 9.557-2.935 13.722c-0.478 1.024-1.365 1.775-1.911 2.799-1.707 3.004-3.618 5.939-6.144 8.329-0.273 0.273-0.341 0.614-0.614 0.887l-234.155 204.8c-14.199 12.425-35.772 10.991-48.196-3.209s-10.991-35.703 3.209-48.196l165.751-144.998h-455.27c-18.842 0-34.133-15.292-34.133-34.133s15.292-34.133 34.133-34.133h455.27l-165.751-144.998c-14.199-12.425-15.633-33.997-3.209-48.196 6.758-7.646 16.179-11.605 25.668-11.605 7.987 0 15.974 2.799 22.46 8.465l234.155 204.8c0.273 0.205 0.341 0.614 0.614 0.887 2.594 2.321 4.437 5.188 6.212 8.26z" />
<glyph unicode="&#xe91d;" d="M597.333 960h426.667v-426.667h-426.667v426.667z" />
<glyph unicode="&#xe91e;" glyph-name="post" data-tags="公告" horiz-adv-x="1071" d="M552.236 926.537c-23.903 0-49.044-13.094-74.851-38.854l-83.755-83.708c-50.854-50.996-154.798-94.041-226.984-94.041-91.899 0-166.655-74.756-166.655-166.655v-190.463c0-91.899 74.756-166.655 166.655-166.655 72.090 0 176.036-43.044 227.032-94.041l83.708-83.708c25.76-25.855 50.949-38.949 74.851-38.949 32.284 0 66.757 25.665 66.757 97.66v761.85c0 71.9-34.521 97.565-66.757 97.565zM571.377 67.121c0-24.903-5.905-50.044-19.141-50.044-3.81 0-18.047 1.857-41.188 24.998l-83.708 83.708c-59.52 59.52-176.463 107.992-260.695 107.992-65.662 0-119.040 53.377-119.040 119.040v190.463c0 65.662 53.377 119.040 119.040 119.040 84.327 0 201.272 48.472 260.695 107.992l83.708 83.708c23.094 23.046 37.378 24.903 41.188 24.903 13.238 0 19.141-25.093 19.141-49.949v-761.85zM960.112 760.453c-10.761 13.094-22.142 25.76-34.14 37.76-9.285 9.285-24.379 9.285-33.665 0s-9.285-24.379 0-33.665c10.904-10.904 21.236-22.427 30.903-34.235 64.519-79.328 100.136-179.511 100.136-282.075 0-102.659-35.568-202.843-100.136-282.075-9.808-12.095-20.142-23.618-31.093-34.617-9.285-9.285-9.285-24.379 0-33.665 4.666-4.666 10.761-6.952 16.856-6.952s12.19 2.333 16.856 6.952c12.095 12.095 23.522 24.808 34.379 38.14 71.471 87.803 110.801 198.653 110.801 312.216-0.048 113.468-39.378 224.318-110.897 312.216zM754.603 633.938c-9.476 9.094-24.522 8.952-33.665-0.572-9.094-9.476-8.904-24.569 0.572-33.665 5.381-5.286 10.619-10.904 15.38-16.666 31.188-37.76 48.425-85.66 48.425-134.848 0-48.711-16.856-96.184-47.663-133.847-4.524-5.571-9.38-10.951-14.427-16.094-9.19-9.38-9.094-24.474 0.285-33.665 4.666-4.571 10.666-6.809 16.713-6.809 6.142 0 12.332 2.333 16.951 7.047 6.142 6.237 12.047 12.856 17.428 19.523 37.616 45.949 58.329 104.087 58.329 163.75 0 60.282-21.046 118.848-59.329 165.179-6 7.285-12.332 14.19-18.999 20.665z" />
<glyph unicode="&#xe91f;" glyph-name="not-follow" data-tags="不关注, 不收藏, 不喜欢" d="M987.458 488.238c26.713 27.469 36.457 59.81 26.713 88.875s-36.961 48.974-74.931 54.77l-182.287 27.805c-31.837 4.872-73.335 35.869-86.943 65.018l-84.255 179.767c-23.521 50.15-59.39 55.526-73.755 55.526s-50.234-5.376-73.755-55.526l-84.339-179.767c-13.609-29.149-55.106-60.146-86.943-65.018l-182.287-27.805c-37.885-5.796-65.103-25.789-74.931-54.77-9.66-29.065 0-61.406 26.797-88.875l134.657-138.101c22.933-23.521 39.062-74.511 33.769-106.936l-32.341-198.836c-6.468-39.23 5.46-63.002 16.549-76.107 23.353-27.553 64.514-32.257 105.172-9.66l164.478 90.975c26.377 14.617 79.887 14.617 106.348 0l164.478-90.975c17.557-9.744 34.777-14.617 51.074-14.617 21.589 0 40.742 8.652 54.098 24.277 11.088 13.105 23.017 36.877 16.549 76.107l-32.425 199.004c-5.292 32.425 10.836 83.331 33.685 106.852l134.825 138.017zM792.571 408.854c-41.834-43.010-66.111-119.957-56.45-179.095l32.005-196.4-162.294 89.715c-25.621 14.113-58.97 22.009-93.832 22.009s-68.211-7.812-93.832-22.009l-162.294-89.715 32.005 196.4c9.66 59.222-14.617 136.169-56.534 179.179l-134.573 137.933c-0.588 0.588-1.092 1.092-1.596 1.596 0.672 0.084 1.428 0.252 2.1 0.336l182.287 27.805c60.062 9.156 124.661 57.542 150.45 112.396l81.987 174.811 81.987-174.727c25.789-54.854 90.387-103.24 150.45-112.396l182.287-27.805c0.756-0.084 1.512-0.252 2.1-0.336-0.504-0.504-1.008-1.008-1.512-1.596l-134.741-138.101z" />
<glyph unicode="&#xe920;" glyph-name="follow" data-tags="喜欢，关注，收藏" d="M550.256 915.173c-20.973 44.827-55.449 44.827-76.512 0l-90.374-192.72c-20.973-44.827-78.312-87.584-127.19-95.055l-195.331-29.795c-48.878-7.471-60.67-42.577-26.104-78.042l144.383-147.893c34.565-35.466 56.349-104.416 48.338-153.294l-34.745-213.153c-8.011-48.788 20.883-69.221 64.27-45.277l176.248 97.485c43.297 23.944 114.228 23.944 157.525 0l176.248-97.485c43.297-23.944 72.281-3.601 64.27 45.277l-34.745 213.153c-8.011 48.788 13.772 117.828 48.338 153.294l144.383 147.893c34.565 35.466 22.774 70.571-26.104 78.042l-195.331 29.795c-48.878 7.471-106.217 50.228-127.19 95.055l-90.374 192.72z" />
<glyph unicode="&#xe921;" glyph-name="unread" data-tags="未读" d="M0 661.333v-597.333h1024v597.333l-512-426.667zM1024 832h-1024l512-426.667z" />
<glyph unicode="&#xe922;" glyph-name="read" data-tags="已读" d="M0 576v-597.333h1024v597.333l-512-426.667zM512 917.333l-512-256h1024z" />
<glyph unicode="&#xe923;" glyph-name="link-1" data-tags="链接, 附件" d="M323.467 176.186c-30.925 0-61.782 11.739-85.261 35.151-47.024 47.091-46.957 123.698-0.067 170.723l287.377 287.31c13.081 13.081 34.346 13.081 47.427 0s13.081-34.346 0-47.427l-287.377-287.31c-20.862-20.929-20.862-54.94 0-75.936 20.929-20.795 54.94-20.728 75.869 0.134l387.463 387.597c13.081 13.081 34.346 13.081 47.427 0s13.081-34.346 0-47.427l-387.53-387.664c-23.546-23.479-54.47-35.151-85.328-35.151zM632.847 202.951c-8.586 0-17.173 3.287-23.747 9.794-13.081 13.081-13.081 34.346 0 47.427l306.563 306.563c26.564 26.564 41.188 61.849 41.188 99.415s-14.624 72.985-41.121 99.549c-54.806 54.739-144.091 54.671-199.031 0l-339.902-339.902c-13.081-13.081-34.346-13.081-47.427 0s-13.081 34.346 0 47.427l339.902 339.835c81.035 80.967 212.917 80.967 293.884 0 39.176-39.176 60.776-91.298 60.843-146.774 0-55.544-21.533-107.733-60.843-146.909l-306.563-306.563c-6.574-6.574-15.16-9.861-23.747-9.861zM323.534 1.975c-75.534 0-151.001 28.778-208.489 86.2-114.978 114.978-115.045 302.068-0.134 417.046l308.106 307.904c13.081 13.081 34.346 13.081 47.427 0s13.081-34.346 0-47.427l-308.106-307.904c-88.749-88.816-88.682-233.377 0.067-322.193 88.816-88.682 233.377-88.682 322.193 0l403.764 403.831c13.081 13.081 34.346 13.081 47.427 0s13.081-34.346 0-47.427l-403.764-403.831c-57.489-57.422-133.023-86.2-208.489-86.2z" />
<glyph unicode="&#xe924;" glyph-name="link-2" data-tags="链接, 附件" d="M511.966 95.266c-62.805 0.205-113.801 51.268-113.801 113.801v371.644c0 18.842 15.292 34.133 34.133 34.133s34.133-15.292 34.133-34.133v-371.644c0-24.986 20.48-45.466 45.602-45.534 24.917 0 45.397 20.48 45.466 45.67v501.146c0 18.842 15.292 34.133 34.133 34.133s34.133-15.292 34.133-34.133v-501.282c-0.137-62.805-51.2-113.801-113.801-113.801zM432.299 292.966c-18.842 0-34.133 15.292-34.133 34.133v439.501c0.068 106.633 86.903 193.399 193.468 193.399 51.678 0 100.352-20.207 136.943-56.866 36.523-36.523 56.525-84.992 56.457-136.533v-396.493c0-18.842-15.292-34.133-34.133-34.133s-34.133 15.292-34.133 34.133v396.561c0.068 33.314-12.902 64.58-36.523 88.269-23.62 23.757-55.091 36.796-88.61 36.796-68.949 0-125.133-56.115-125.201-125.133v-439.501c0-18.842-15.223-34.133-34.133-34.133zM512.034-64c-150.596 0.068-273.067 122.539-273.135 273.067l0.137 398.268c0 18.842 15.292 34.133 34.133 34.133v0c18.842 0 34.133-15.292 34.133-34.133l-0.137-398.268c0.068-112.845 91.955-204.732 204.868-204.8 112.913 0.068 204.8 91.955 204.8 204.8v522.172c0 18.842 15.292 34.133 34.133 34.133s34.133-15.292 34.133-34.133v-522.172c-0.068-150.46-122.539-272.998-273.067-273.067z" />
<glyph unicode="&#xe925;" glyph-name="settings" data-tags="设置" d="M652.103-42.966c-7.024 0-14.048 1.964-20.166 5.816-9.29 5.816-15.559 15.483-17.22 26.435-7.477 50.754-51.661 88.971-102.717 88.971-51.812 0-95.013-37.462-102.793-89.122-1.586-10.951-7.855-20.468-17.296-26.435-9.29-5.74-20.921-7.175-31.193-4.078-72.053 22.281-139.952 61.63-196.296 114.046-8.006 7.477-12.462 17.976-12.084 29.003 0.378 10.951 5.513 21.148 14.048 28.021 25 20.241 39.35 49.773 39.35 81.116 0 70.24-73.262 124.016-141.991 97.053-10.196-3.927-21.827-3.248-31.495 1.813-9.819 5.136-16.843 14.275-19.259 25.075-8.686 38.066-12.991 76.207-12.991 113.216 0 36.631 4.381 74.621 12.84 112.913 2.417 10.8 9.365 19.939 19.033 25.075 9.668 5.287 21.223 5.967 31.419 1.964 73.715-28.398 142.445 26.963 142.445 97.128 0 31.344-14.35 60.951-39.425 81.041-8.535 6.873-13.746 17.145-14.124 28.096s4.078 21.601 12.084 29.078c57.401 53.096 123.487 91.464 196.447 113.971 10.272 3.248 21.903 1.737 31.193-4.078 9.365-5.891 15.634-15.483 17.296-26.435 7.779-51.51 50.981-88.971 102.793-88.971 51.963 0 95.164 37.386 102.793 88.896 1.586 10.951 7.855 20.543 17.22 26.435 9.365 5.967 20.846 7.402 31.268 4.154 72.959-22.507 139.046-60.875 196.447-113.971 8.006-7.477 12.462-18.051 12.084-29.078-0.453-11.027-5.589-21.223-14.199-28.172-25.151-20.090-39.501-49.621-39.501-80.965 0-70.165 70.845-125.149 142.369-97.053 10.272 4.003 21.827 3.474 31.495-1.662 9.743-5.136 16.767-14.275 19.184-25.075 8.535-37.688 12.84-75.829 12.84-113.291 0-36.706-4.381-74.772-12.84-113.064-2.417-10.8-9.441-20.015-19.184-25.151-9.819-5.211-21.148-5.816-31.57-1.737-69.032 27.039-142.369-26.737-142.369-97.053 0-31.344 14.35-60.951 39.425-81.041 8.535-6.873 13.67-17.145 14.124-28.096 0.378-11.027-4.078-21.525-12.084-29.003-56.343-52.34-124.243-91.766-196.296-114.046-3.55-1.133-7.326-1.737-11.103-1.737zM512 153.783c72.808 0 137.535-45.014 165.254-109.968 36.253 14.879 70.316 34.743 101.735 59.289-23.489 30.815-36.329 68.428-36.329 107.778 0 106.494 96.146 192.746 201.809 178.547 2.643 19.864 4.003 39.425 4.003 58.534 0 19.335-1.359 38.821-4.078 58.307-106.796-13.973-201.885 72.053-201.885 178.698 0 39.35 12.915 76.962 36.404 107.778-31.344 24.546-65.331 44.335-101.509 59.289-27.341-65.633-91.237-109.817-165.405-109.817-74.017 0-137.913 44.184-165.329 109.741-36.178-14.879-70.24-34.743-101.66-59.213 23.413-30.891 36.253-68.428 36.253-107.778 0-106.569-95.013-192.595-201.658-178.698-2.719-19.788-4.078-39.274-4.078-58.307 0-19.184 1.435-38.746 4.154-58.383 106.645 13.293 201.658-72.204 201.658-178.622 0-39.35-12.915-76.887-36.253-107.778 31.419-24.471 65.331-44.335 101.66-59.213 27.341 65.633 91.237 109.817 165.254 109.817zM512 259.144c-104.152 0-188.818 84.666-188.818 188.818s84.666 188.818 188.818 188.818 188.818-84.666 188.818-188.818-84.666-188.818-188.818-188.818zM512 561.253c-62.461 0-113.291-50.83-113.291-113.291s50.83-113.291 113.291-113.291 113.291 50.83 113.291 113.291-50.83 113.291-113.291 113.291z" />
<glyph unicode="&#xe926;" glyph-name="m-reply" data-tags="回复" d="M914.832 628.71c-6.987 0-13.974 1.965-20.16 6.113l-315.57 210.404c-54.73 36.535-147.086 36.535-201.816 0l-315.642-210.404c-16.666-10.99-39.301-6.696-50.436 10.116-11.135 16.666-6.623 39.301 10.116 50.436l315.57 210.404c79.184 52.91 203.417 52.91 282.601 0l315.57-210.404c16.666-11.135 21.251-33.769 10.116-50.436-7.132-10.553-18.631-16.23-30.349-16.23zM478.158 448.509c-52.765 0-105.384 10.262-146.504 30.786l-306.472 153.272c-17.976 9.025-25.182 30.858-16.23 48.835 9.025 17.976 30.858 25.182 48.835 16.302l306.472-153.2c61.717-30.858 166.154-30.858 227.871 0l306.472 153.2c18.049 8.879 39.883 1.674 48.835-16.302s1.674-39.81-16.302-48.835l-306.472-153.272c-41.12-20.524-93.739-30.786-146.504-30.786zM332.6 46.478h-290.388c-20.16 0-37.117 16.957-37.117 37.117v581.504c0 20.087 16.302 36.389 36.389 36.389s36.389-16.302 36.389-36.389v-545.842h254.726c20.087 0 36.389-16.302 36.389-36.389s-16.302-36.389-36.389-36.389zM914.832 337.594c-20.087 0-36.389 16.302-36.389 36.389v291.116c0 20.087 16.302 36.389 36.389 36.389s36.389-16.302 36.389-36.389v-291.116c0-20.087-16.302-36.389-36.389-36.389zM696.495-62.69c-10.626 0-21.251 4.658-28.457 13.682l-145.558 181.947c-10.626 13.319-10.626 32.168 0 45.487l145.558 181.947c12.591 15.72 35.516 17.976 51.164 5.677 15.72-12.591 18.195-35.443 5.677-51.164l-127.363-159.24 127.363-159.24c12.518-15.72 10.043-38.573-5.677-51.164-6.696-5.313-14.774-7.933-22.707-7.933zM987.611 119.257h-436.674c-20.087 0-36.389 16.302-36.389 36.389s16.302 36.389 36.389 36.389h436.674c20.087 0 36.389-16.302 36.389-36.389s-16.302-36.389-36.389-36.389z" />
<glyph unicode="&#xe927;" glyph-name="reply-all" data-tags="回复全部" d="M928.412 557.352c-6.118 0-12.235 1.721-17.652 5.353l-276.312 184.23c-47.921 31.99-128.789 31.99-176.71 0l-276.376-184.23c-14.529-9.686-34.348-5.863-44.162 8.858-9.75 14.593-5.799 34.412 8.858 44.162l276.312 184.23c69.333 46.328 178.112 46.328 247.445 0l276.312-184.23c14.593-9.75 18.608-29.568 8.858-44.162-6.245-9.24-16.314-14.211-26.573-14.211zM546.061 399.569c-46.201 0-92.274 8.985-128.279 26.956l-268.347 134.205c-15.74 7.902-22.049 27.019-14.211 42.76 7.902 15.676 27.083 22.049 42.76 14.211l268.347-134.142c54.039-27.019 145.485-27.019 199.524 0l268.347 134.142c15.804 7.838 34.858 1.402 42.76-14.274 7.838-15.74 1.466-34.858-14.274-42.76l-268.347-134.142c-36.005-17.971-82.078-26.956-128.279-26.956zM418.611 47.551h-254.263c-17.652 0-32.5 14.848-32.5 32.5v509.164c0 17.588 14.274 31.863 31.863 31.863s31.863-14.274 31.863-31.863v-477.939h223.038c17.588 0 31.863-14.274 31.863-31.863s-14.274-31.863-31.863-31.863zM928.412 302.452c-17.588 0-31.863 14.274-31.863 31.863v254.901c0 17.588 14.274 31.863 31.863 31.863s31.863-14.274 31.863-31.863v-254.901c0-17.588-14.274-31.863-31.863-31.863zM36.26 621.078c-10.26 0-20.328 4.971-26.51 14.211-9.75 14.593-5.799 34.412 8.858 44.162l382.351 254.901c14.593 9.686 34.348 5.863 44.162-8.858 9.75-14.593 5.799-34.412-8.858-44.162l-382.351-254.901c-5.417-3.632-11.534-5.353-17.652-5.353zM36.26 111.276c-17.588 0-31.863 14.274-31.863 31.863v509.801c0 17.588 14.274 31.863 31.863 31.863s31.863-14.274 31.863-31.863v-509.801c0-17.588-14.274-31.863-31.863-31.863zM737.237-48.037c-9.304 0-18.608 4.078-24.917 11.98l-127.45 159.313c-9.304 11.662-9.304 28.167 0 39.828l127.45 159.313c11.088 13.765 31.098 15.74 44.799 4.971 13.765-11.024 15.931-31.034 4.971-44.799l-111.519-139.431 111.519-139.431c10.961-13.765 8.794-33.774-4.971-44.799-5.863-4.652-12.936-6.946-19.882-6.946zM992.137 111.276h-382.351c-17.588 0-31.863 14.274-31.863 31.863s14.274 31.863 31.863 31.863h382.351c17.588 0 31.863-14.274 31.863-31.863s-14.274-31.863-31.863-31.863z" />
<glyph unicode="&#xe928;" glyph-name="contact" data-tags="导航_联络" d="M747.887-73.142c-236.422 0-743.911 508.283-743.911 745.033 0 86.117 53.109 175.926 97.665 236.048l2.945 4.068c29.827 38.663 90.604 38.851 119.778 3.132l185.183-223.613c12.342-12.763 19.729-31.418 19.729-51.146 0-20.477-7.807-39.364-21.927-53.157l-35.718-35.765c-6.499-6.546-10.052-15.194-10.052-24.357s3.553-17.719 10.005-24.171l220.667-220.948c12.95-12.997 35.484-12.997 48.341 0 0 0 32.632 33.427 36.373 37.121 26.321 25.292 71.296 27.584 100.375 4.115l216.413-178.217c16.924-15.008 26.274-35.765 26.274-57.458 0-22.722-10.145-44.134-27.817-58.814-1.776-1.496-6.592-4.955-10.707-7.995l-5.283-3.88c-20.525-15.054-45.817-30.856-77.841-48.715-28.565-15.942-75.41-35.953-136.328-40.908l-14.165-0.374zM165.689 896.11c-9.117 0-17.766-4.395-23.704-12.061l-2.665-3.741c-40.486-54.699-88.641-135.112-88.641-208.466 0-208.84 488.648-698.28 697.159-698.28l12.249 0.281c50.631 4.161 90.885 21.366 115.476 35.064 30.248 16.877 53.998 31.65 72.419 45.162l5.984 4.395c3.226 2.338 6.92 5.002 8.415 6.172 6.873 5.75 10.846 14.025 10.846 22.815 0 8.369-3.6 16.41-9.864 21.974l-215.525 177.469c-6.825 5.423-27.489 8.929-38.336-1.449-3.6-3.506-35.625-36.373-35.625-36.373-30.949-31.044-84.199-30.856-114.775-0.188l-220.574 220.854c-15.288 15.24-23.75 35.625-23.75 57.27-0.047 21.646 8.415 42.030 23.704 57.411l35.953 35.999c5.236 5.143 8.041 12.156 8.041 19.916s-2.712 14.727-7.854 20.103l-186.399 224.969c-5.517 6.732-13.932 10.707-22.534 10.707z" />
<glyph unicode="&#xe929;" glyph-name="m-forward" data-tags="转发邮件" d="M328.65 479.409c41.223-20.575 94.046-30.935 146.869-30.935s105.647 10.36 146.869 30.935l254.413 127.243v-86.896c0-20.137 16.343-36.48 36.48-36.48s36.48 16.343 36.48 36.48v145.921c0 0.365-0.219 0.73-0.219 1.094 0 1.24-0.292 2.335-0.438 3.575-0.292 2.116-0.876 4.086-1.459 6.056-0.511 1.532-0.73 3.137-1.459 4.597-0.146 0.365-0.073 0.73-0.292 1.094-0.292 0.657-0.948 1.021-1.313 1.605-0.876 1.678-2.116 3.064-3.356 4.597-1.167 1.459-2.116 2.845-3.429 4.086-0.876 0.803-1.751 1.459-2.7 2.116-0.584 0.438-0.948 1.167-1.532 1.532l-316.429 210.929c-79.454 53.042-203.851 53.042-283.305 0l-316.284-210.929c-0.657-0.438-1.021-1.167-1.605-1.532-0.948-0.73-1.824-1.313-2.7-2.116-1.313-1.24-2.335-2.7-3.429-4.086-1.24-1.532-2.481-2.918-3.429-4.669-0.365-0.657-0.948-1.021-1.24-1.605-0.219-0.365-0.146-0.73-0.292-1.094-0.657-1.459-0.948-2.991-1.459-4.597-0.584-1.97-1.167-3.94-1.459-6.056-0.146-1.167-0.438-2.335-0.438-3.502 0-0.365-0.219-0.73-0.219-1.094v-582.954c0-20.137 17-37.21 37.21-37.21h364.073c20.137 0 36.48 16.343 36.48 36.48s-16.343 36.48-36.48 36.48h-328.322v488.178l254.413-127.243zM374.324 846.255c54.866 36.626 147.453 36.626 202.319 0l264.044-176.054-250.984-125.492c-61.87-31.008-166.423-31.008-228.439 0l-250.984 125.492 264.044 176.054zM1022.723 154.881c0 0.073 0 0.073 0 0.146 0 7.807-3.064 14.665-7.296 20.648-0.438 0.657-0.219 1.459-0.73 2.043l-145.921 182.401c-12.622 15.686-35.532 18.24-51.291 5.691-15.686-12.622-18.24-35.532-5.691-51.291l98.57-123.157h-361.884c-20.137 0-36.48-16.343-36.48-36.48s16.343-36.48 36.48-36.48h361.884l-98.57-123.157c-12.549-15.759-9.996-38.669 5.691-51.291 6.712-5.326 14.811-7.953 22.764-7.953 10.725 0 21.304 4.669 28.528 13.717l145.921 182.401c0.511 0.657 0.292 1.459 0.73 2.043 4.232 6.056 7.296 12.914 7.296 20.721z" />
<glyph unicode="&#xe92a;" glyph-name="m-default" data-tags="设为默认" d="M512 960c-282.368 0-512-229.632-512-512s229.632-512 512-512 512 229.632 512 512-229.632 512-512 512zM512 21.333c-235.264 0-426.667 191.403-426.667 426.667s191.403 426.667 426.667 426.667 426.667-191.403 426.667-426.667-191.403-426.667-426.667-426.667zM737.792 648.875l-311.125-311.211-140.459 140.544c-16.64 16.64-43.691 16.64-60.331 0s-16.64-43.691 0-60.331l170.667-170.667c8.277-8.363 19.2-12.544 30.123-12.544s21.845 4.181 30.208 12.459l341.333 341.333c16.64 16.64 16.64 43.691 0 60.331s-43.691 16.725-60.416 0.085z" />
<glyph unicode="&#xe92b;" glyph-name="connect" data-tags="测试连接" d="M220.313 387.641l87.547-87.547-291.77-291.687c-16.090-16.090-16.090-42.247 0-58.337 8.086-8.086 18.648-12.047 29.21-12.047s21.124 4.043 29.127 12.047l291.687 291.687 87.547-87.547 116.675 116.675-233.35 233.432-116.675-116.675zM1007.91 941.888c-16.090 16.090-42.247 16.090-58.337 0l-291.687-291.687-204.222 204.14-175.012-175.012 116.675-116.675 58.337 58.337 233.35-233.35-58.337-58.337 116.675-116.675 175.012 175.012-204.222 204.222 291.687 291.687c16.173 16.090 16.173 42.165 0.083 58.337z" />
<glyph unicode="&#xe92c;" glyph-name="auto-price" data-tags="报价" d="M535.942 200.608c-99.527 0-149.654 52.613-152.017 55.157-11.395 12.244-10.667 31.458 1.637 42.793 12.244 11.456 31.458 10.79 42.853-1.575 1.515-1.575 45.339-45.52 138.259-33.761 38.55 4.85 57.159 21.396 62.31 55.157 4.486 29.76-0.666 61.16-68.311 88.192-24.003 9.577-48.188 16.486-71.523 23.154-38.066 10.85-70.918 20.246-93.768 38.975-30.124 24.669-43.338 62.431-36.187 103.649 7.274 42.066 34.065 77.101 68.13 89.283 131.228 46.975 227.966-54.248 228.875-55.218 11.456-12.244 10.85-31.458-1.334-42.853-12.184-11.516-31.337-10.91-42.853 1.273-0.728 0.849-71.766 72.857-164.384 39.701-12.972-4.606-25.337-22.911-28.73-42.551-1.939-11.214-2.607-32.065 14.911-46.43 13.153-10.79 41.702-18.972 72.008-27.519 23.7-6.728 50.551-14.426 77.463-25.214 80.675-32.186 116.196-83.89 105.71-153.534-9.396-61.22-49.036-97.89-114.619-106.195-13.638-1.758-26.427-2.484-38.43-2.484zM523.941 649.329c-16.73 0-30.307 13.578-30.307 30.307v60.613c0 16.73 13.578 30.307 30.307 30.307s30.307-13.578 30.307-30.307v-60.613c0-16.73-13.578-30.307-30.307-30.307zM523.941 103.809c-16.73 0-30.307 13.578-30.307 30.307v60.613c0 16.73 13.578 30.307 30.307 30.307s30.307-13.578 30.307-30.307v-60.613c0-16.73-13.578-30.307-30.307-30.307zM524.79-47.847c-28.185 0-56.674 2.424-85.040 7.455-263.364 46.49-439.749 298.461-393.319 561.765 2.848 16.426 18.488 28.004 35.095 24.548 16.486-2.909 27.519-18.608 24.548-35.095-40.61-230.391 113.71-450.842 344.162-491.513 144.138-25.518 289.246 24.184 387.924 132.683 11.335 12.365 30.428 13.214 42.793 2 12.365-11.335 13.274-30.428 2-42.853-93.283-102.496-222.814-158.989-358.164-158.989zM971.631 327.896c-1.758 0-3.516 0.121-5.274 0.485-16.486 2.909-27.519 18.608-24.548 35.095 19.699 111.65-5.274 224.208-70.252 317.067-64.978 92.799-162.262 154.807-273.912 174.445-144.199 25.397-289.186-24.064-387.864-132.622-11.274-12.365-30.368-13.274-42.793-2-12.365 11.335-13.274 30.488-2 42.913 112.68 123.894 278.275 180.567 443.204 151.412 127.531-22.426 238.695-93.283 313.008-199.358 74.311-106.133 102.8-234.817 80.313-362.406-2.667-14.668-15.396-25.033-29.883-25.033z" />
<glyph unicode="&#xe92d;" glyph-name="order" data-tags="列表页_下单-07" d="M909.531 594.578l-286.427 37.668-37.668 286.427 72.559 9.509 30.355-230.692 230.692-30.355zM841.144-64h-658.286c-60.489 0-109.714 49.225-109.714 109.714v804.572c0 60.489 49.225 109.714 109.714 109.714h453.997l314.002-314.002v-600.284c0-60.489-49.225-109.714-109.714-109.714zM182.858 886.857c-20.187 0-36.571-16.384-36.571-36.571v-804.572c0-20.187 16.384-36.571 36.571-36.571h658.286c20.187 0 36.571 16.384 36.571 36.571v570.002l-271.141 271.141h-423.716zM219.43 740.57h292.57v-73.144h-292.57v73.144zM219.43 521.143h292.57v-73.144h-292.57v73.144zM399.581 86.016l-169.472 169.399 51.785 51.712 123.099-123.099 340.188 272.092 45.714-57.124z" />
<glyph unicode="&#xe92e;" glyph-name="cust-assign" data-tags="客户分配" d="M318.486 368.355c-100.352 0-181.954 81.647-181.954 182.044s81.601 182.044 181.954 182.044c100.443 0 182.136-81.647 182.136-182.044s-81.692-182.044-182.136-182.044zM318.486 686.932c-75.184 0-136.443-61.257-136.443-136.534s61.257-136.534 136.443-136.534c75.276 0 136.624 61.257 136.624 136.534s-61.349 136.534-136.624 136.534zM318.578 368.355c150.596 0 273.067-122.471 273.067-273.067h45.511c0 175.628-142.951 318.578-318.578 318.578s-318.578-142.951-318.578-318.578h45.511c0 150.596 122.471 273.067 273.067 273.067zM773.689 510.121c-80.145 0-145.318 65.172-145.318 145.272s65.172 145.318 145.318 145.318c80.1 0 145.226-65.172 145.226-145.272s-65.127-145.318-145.226-145.318zM773.689 755.199c-55.023 0-99.805-44.737-99.805-99.76s44.783-99.76 99.805-99.76c54.977 0 99.715 44.737 99.715 99.76s-44.737 99.76-99.715 99.76zM1024 305.321h-45.511c0 112.913-91.887 204.8-204.8 204.8-81.465 0-155.148-48.241-187.779-122.88l-41.688 18.249c39.868 91.204 129.889 150.142 229.467 150.142 137.99 0 250.311-112.276 250.311-250.311z" />
<glyph unicode="&#xe92f;" glyph-name="top" data-tags="置顶" d="M1024 377.843l-512 426.613-512-426.613 51.848-62.218 419.646 349.732v-723.686h81.013v723.686l419.646-349.732zM25.924 954.329h972.152v-81.013h-972.152v81.013z" />
<glyph unicode="&#xe930;" glyph-name="angle-left" data-tags="左箭头（默认）" d="M295.358 438.821l382.734 382.805 50.55-50.55-332.183-332.257 332.183-332.183-50.55-50.55z" />
<glyph unicode="&#xe931;" glyph-name="picker" data-tags="grid, apps, squares, blocks" d="M384 384h-320c-35.376 0-64-28.624-64-64v-320c0-35.376 28.624-64 64-64h320c35.376 0 64 28.624 64 64v320c0 35.376-28.624 64-64 64zM320 64h-192v192h192v-192zM384 960h-320c-35.376 0-64-28.624-64-64v-320c0-35.376 28.624-64 64-64h320c35.376 0 64 28.624 64 64v320c0 35.376-28.624 64-64 64zM320 640h-192v192h192v-192zM960 384h-320c-35.376 0-64-28.624-64-64v-320c0-35.376 28.624-64 64-64h320c35.376 0 64 28.624 64 64v320c0 35.376-28.624 64-64 64zM896 64h-192v192h192v-192zM960 960h-320c-35.376 0-64-28.624-64-64v-320c0-35.376 28.624-64 64-64h320c35.376 0 64 28.624 64 64v320c0 35.376-28.624 64-64 64zM896 640h-192v192h192v-192z" />
<glyph unicode="&#xe932;" glyph-name="angle-down" data-tags="下箭头（默认）" d="M512.041 185.644l-447.426 447.343 59.083 59.083 388.345-388.259 388.259 388.259 59.083-59.083z" />
<glyph unicode="&#xe933;" glyph-name="close" data-tags="关闭" d="M767.939 735.962l32.052-32.052-543.911-543.911-32.052 32.052 543.911 543.911zM256.061 736.001l543.911-543.911-32.052-32.052-543.911 543.911 32.052 32.052z" />
<glyph unicode="&#xe934;" glyph-name="angle-right" data-tags="右箭头（默认）" d="M728.642 438.893l-382.734-382.805-50.55 50.55 332.183 332.257-332.183 332.183 50.55 50.55z" />
<glyph unicode="&#xe935;" glyph-name="form" data-tags="详情页_报关单" d="M923.788 640.296l-250.529 32.892-33.019 250.592 63.481 8.319 26.492-201.831 201.894-26.621zM863.955-63.999h-703.912c-52.921 0-95.988 43.13-95.988 95.988v832.024c0 52.858 43.067 95.988 95.988 95.988h525.183l274.717-274.717v-653.295c0-52.858-43.067-95.988-95.988-95.988zM160.045 896.008c-17.598 0-31.995-14.399-31.995-31.995v-832.024c0-17.598 14.399-31.995 31.995-31.995h703.912c17.598 0 31.995 14.399 31.995 31.995v626.801l-237.219 237.219h-498.689zM260.448 703.904h319.96v-63.993h-319.96v63.993zM260.448 447.937h383.952v-63.993h-383.952v63.993zM260.448 255.961h511.936v-63.993h-511.936v63.993z" />
<glyph unicode="&#xe936;" glyph-name="offer" data-tags="详情页_报价" d="M541.945 119.863h-479.12c-33.12 0-59.891 26.83-59.891 59.891s26.771 59.891 59.891 59.891h479.12c33.12 0 59.891-26.83 59.891-59.891s-26.771-59.891-59.891-59.891zM304.78 389.907c-22.998 0-45.995 8.744-63.543 26.292-35.095 35.095-35.095 91.991 0 127.027l296.456 296.395c35.095 35.095 91.931 35.095 127.027 0s35.095-91.991 0-127.027l-296.456-296.395c-17.487-17.487-40.486-26.292-63.484-26.292zM961.175 59.973c-15.331 0-30.664 5.87-42.342 17.548l-508.166 508.106c-23.416 23.416-23.416 61.267 0 84.685s61.267 23.416 84.685 0l508.166-508.106c23.416-23.416 23.416-61.267 0-84.685-11.679-11.738-27.010-17.548-42.342-17.548z" />
<glyph unicode="&#xe937;" glyph-name="password" data-tags="密码" horiz-adv-x="808" d="M727.579-39.37h-646.737c-44.571 0-80.842 36.271-80.842 80.842v431.158c0 44.571 36.271 80.842 80.842 80.842h646.737c44.571 0 80.842-36.271 80.842-80.842v-431.158c0-44.625-36.271-80.842-80.842-80.842zM80.842 499.577c-14.821 0-26.947-12.072-26.947-26.947v-431.158c0-14.875 12.126-26.947 26.947-26.947h646.737c14.821 0 26.947 12.072 26.947 26.947v431.158c0 14.875-12.126 26.947-26.947 26.947h-646.737zM80.842 612.056c-2.048 0-4.096 0.216-6.198 0.701-14.498 3.503-23.444 18.001-19.995 32.499 40.367 170.846 191.434 290.169 367.239 290.169 129.24 0 248.024-65.051 317.763-174.026 8.030-12.504 4.365-29.211-8.138-37.241-12.396-7.869-29.265-4.419-37.187 8.192-59.769 93.4-161.576 149.181-272.384 149.181-150.744 0-280.199-102.238-314.853-248.67-2.91-12.45-14.013-20.803-26.247-20.803zM404.211 108.84c-14.875 0-26.947 12.072-26.947 26.947v161.684c0 14.875 12.072 26.947 26.947 26.947s26.947-12.072 26.947-26.947v-161.684c0-14.929-12.072-26.947-26.947-26.947zM485.053 297.472c0-44.648-36.194-80.842-80.842-80.842s-80.842 36.194-80.842 80.842c0 44.648 36.194 80.842 80.842 80.842s80.842-36.194 80.842-80.842z" />
<glyph unicode="&#xe938;" glyph-name="logout" data-tags="退出" horiz-adv-x="916" d="M485.344 19.029h-332.218c-38.082 0-69.079 31.052-69.079 69.189v719.567c0 38.137 30.997 69.189 69.079 69.189h332.218c22.915 0 41.513 18.598 41.513 41.513s-18.598 41.513-41.513 41.513h-332.218c-83.912 0-152.106-68.248-152.106-152.216v-719.567c0-83.968 68.192-152.216 152.106-152.216h332.218c22.915 0 41.513 18.598 41.513 41.513s-18.598 41.513-41.513 41.513zM911.272 433.056c3.709 9.631 3.709 20.204 0 29.834-0.664 1.716-1.661 3.155-2.601 4.705-1.163 2.103-1.882 4.373-3.487 6.31l-221.405 276.757c-14.392 17.878-40.462 20.646-58.396 6.476-17.878-14.336-20.812-40.462-6.476-58.396l167.438-209.283h-467.054c-22.915 0-41.513-18.598-41.513-41.513s18.598-41.513 41.513-41.513h467.11l-167.438-209.283c-14.336-17.878-11.402-44.059 6.476-58.396 7.693-6.088 16.827-9.078 25.96-9.078 12.177 0 24.244 5.369 32.436 15.553l221.405 276.757c1.55 1.937 2.325 4.207 3.487 6.31 0.885 1.661 1.937 3.044 2.546 4.76z" />
<glyph unicode="&#xe939;" d="M0 960h426.667v-426.667h-426.667v426.667z" />
<glyph unicode="&#xe93a;" d="M597.333 362.667h426.667v-426.667h-426.667v426.667z" />
<glyph unicode="&#xe93b;" d="M0 362.667h426.667v-426.667h-426.667v426.667z" />
<glyph unicode="&#xe93c;" glyph-name="edit-line" data-tags="详情页_编辑-44" d="M16.775 10.222h990.449v-61.904h-990.449v61.904zM782.826 526.494l-218.704 218.828 174.753 175.185c35.16 35.099 96.198 35.038 131.482-0.061l87.531-87.592c36.152-36.152 36.152-95.021 0-131.173l-175.062-175.185zM651.591 745.32l131.234-131.297 131.297 131.421c12.010 12.010 12.010 31.633 0 43.641l-87.468 87.531c-11.823 11.823-32.19 11.947-43.951 0.124l-131.111-131.421zM16.775-51.682c-8.047 0-15.971 3.158-21.913 9.038-9.223 9.162-11.637 23.152-6.19 34.975l153.334 328.395c1.548 3.28 3.653 6.252 6.19 8.791l437.717 437.778c5.819 5.819 13.681 9.038 21.913 9.038v0c8.233 0 16.095-3.28 21.913-9.038l174.999-175.185c12.071-12.071 12.071-31.694 0-43.766l-437.654-437.53c-2.538-2.538-5.509-4.643-8.791-6.19l-328.395-153.457c-4.209-1.919-8.667-2.848-13.124-2.848zM195.861 289.59l-114.954-246.312 246.25 115.078 411.965 411.778-131.234 131.421-412.027-411.965z" />
<glyph unicode="&#xe93d;" glyph-name="purch-inquiry" data-tags="详情页_采购询价" d="M522.367 362.047c-87.040 0-131.327 46.464-133.312 48.704-12.031 12.928-11.328 33.217 1.664 45.248 12.8 11.968 33.152 11.328 45.185-1.727 1.215-1.152 37.183-36.159 111.296-26.561 36.545 4.608 44.224 22.527 47.104 41.216 3.968 26.112-3.711 47.616-53.76 67.649-20.416 8.192-41.025 14.016-59.841 19.328-32.831 9.344-61.184 17.409-81.472 34.049-26.881 22.015-39.167 57.024-32.831 93.632 6.528 37.76 30.721 69.313 61.631 80.32 91.968 32.511 171.072-17.344 200.192-48.384 12.096-12.863 11.52-33.152-1.344-45.248-12.8-12.031-33.088-11.52-45.248 1.407-0.575 0.575-57.536 58.688-132.031 31.873-7.68-2.753-17.344-15.039-20.096-30.976-1.344-8.063-1.856-23.104 10.367-33.152 10.047-8.257 33.537-14.913 58.432-22.015 20.8-5.952 43.521-12.417 66.048-21.44 71.232-28.48 102.656-74.496 93.247-136.705-8.257-54.017-44.544-87.808-102.336-95.105-11.52-1.472-22.527-2.112-32.896-2.112zM512 741.12c-17.664 0-31.999 14.336-31.999 31.999v51.2c0 17.664 14.336 31.999 31.999 31.999s31.999-14.336 31.999-31.999v-51.2c0-17.664-14.336-31.999-31.999-31.999zM512 280.32c-17.664 0-31.999 14.336-31.999 31.999v51.2c0 17.664 14.336 31.999 31.999 31.999s31.999-14.336 31.999-31.999v-51.2c0-17.664-14.336-31.999-31.999-31.999zM224-63.999c-6.464 0-12.928 1.921-18.432 5.824-10.816 7.616-15.808 21.12-12.608 33.92l54.017 216.256h-86.976c-88.255 0-160 71.809-160 160v447.999c0 88.192 71.744 160 160 160h703.999c88.255 0 160-71.809 160-160v-447.999c0-88.192-71.744-160-160-160h-246.335l-375.935-250.623c-5.375-3.585-11.52-5.375-17.729-5.375zM160.001 895.999c-52.928 0-96-43.072-96-96v-447.999c0-52.928 43.072-96 96-96h127.999c9.856 0 19.199-4.543 25.28-12.288s8.192-17.855 5.824-27.456l-43.968-175.743 315.136 210.112c5.249 3.52 11.391 5.375 17.729 5.375h255.999c52.928 0 96 43.072 96 96v447.999c0 52.928-43.072 96-96 96h-703.999z" />
<glyph unicode="&#xe93e;" glyph-name="message" data-tags="导航_消息" d="M512-73.143c-105.856 0-192 86.144-192 192h42.666c0-82.346 66.986-149.334 149.334-149.334s149.334 66.986 149.334 149.334h42.666c0-105.856-86.144-192-192-192zM928.981 97.524h-833.962l88.447 196.565v166.101c0 199.979 147.371 362.666 328.533 362.666s328.533-162.687 328.533-362.666v-166.101l88.447-196.565zM160.982 140.191h701.994l-65.109 149.334v170.666c0 176.469-128.256 320-285.866 320s-285.866-143.531-285.866-320l-1.877-179.414-63.275-140.586zM657.407 767.348l-41.557 9.771c1.877 7.936 2.816 16.171 2.816 24.405 0 58.837-47.872 106.666-106.666 106.666s-106.666-47.829-106.666-106.666c0-8.235 0.939-16.469 2.816-24.405l-41.557-9.771c-2.602 11.179-3.925 22.614-3.925 34.176 0 82.346 66.986 149.334 149.334 149.334s149.334-66.986 149.334-149.334c0-11.562-1.322-22.997-3.925-34.176z" />
<glyph unicode="&#xe93f;" glyph-name="purch-order" data-tags="详情页_采购指令" d="M686.848 82.24h-686.848v73.216h629.695l219.456 804.544h174.848v-73.216h-117.695zM702.656 292.8l-597.504 68.481c-56.127 0.063-105.152 49.151-105.152 109.44v219.456c0 60.479 49.216 109.761 109.696 109.761l523.264-65.216-19.136-71.232-508.672 63.552c-15.551-0.32-31.999-16.703-31.999-36.865v-219.456c0-20.16 16.448-36.545 36.545-36.545l611.263-69.888-18.304-71.489zM73.153 9.153h73.216v-73.153h-73.216v73.153zM531.905 9.153h73.153v-73.153h-73.153v73.153z" />
<glyph unicode="&#xe940;" glyph-name="view" data-tags="详情页_查看" d="M592.143 448.068c0-44.262-35.881-80.143-80.143-80.143s-80.143 35.881-80.143 80.143c0 44.262 35.881 80.143 80.143 80.143s80.143-35.881 80.143-80.143zM961.472 352.818c-1.51 3.433-158.568 340.418-449.472 340.418-291.522 0-447.892-336.983-449.472-340.418l-62.493 28.431c7.004 15.52 176.699 380.661 511.965 380.661 335.473 0 504.961-365.14 512.035-380.729l-62.561-28.363zM512 134.091c-257.322 0-423.446 285.547-430.38 297.702l59.609 34.063c1.51-2.61 153.487-263.090 370.772-263.090s369.261 260.481 370.772 263.090l59.609-34.063c-6.936-12.155-173.058-297.702-430.38-297.702z" />
<glyph unicode="&#xe941;" glyph-name="inspection-fee" data-tags="详情页_产品检测费" d="M1016.013 521.057c-38.834 250.365-250.807 432.093-504.013 432.093-253.333 0-465.306-181.728-504.013-432.093-7.955-51.652 27.405-100.083 79.119-108.101 51.904-7.766 100.083 27.467 108.101 79.119 24.31 157.353 157.607 271.645 316.793 271.645s292.418-114.29 316.855-271.645c7.261-46.79 47.548-80.256 93.452-80.256 4.863 0 9.724 0.378 14.649 1.137 51.652 8.020 87.075 56.451 79.057 108.101zM512 826.863c-190.568 0-350.068-136.707-379.241-325.064-2.4-15.597-15.85-26.773-31.193-26.773-1.579 0-3.221 0.127-4.863 0.378-17.238 2.652-28.984 18.817-26.33 35.992 33.909 219.425 219.677 378.61 441.627 378.61 17.427 0 31.571-14.144 31.571-31.571s-14.144-31.571-31.571-31.571zM623.827 164.738c17.87-49.19-7.45-103.619-56.577-121.489s-103.556 7.514-121.426 56.577c-17.87 49.19-51.336 418.076-51.336 418.076s211.468-304.1 229.338-353.163z" />
<glyph unicode="&#xe942;" glyph-name="engagements" data-tags="导航_约会" d="M776.841 516.579c-67.994 0-123.29 55.296-123.29 123.255s55.296 123.29 123.29 123.29c67.925 0 123.187-55.296 123.187-123.255s-55.262-123.29-123.187-123.29zM776.841 728.99c-49.152 0-89.156-39.97-89.156-89.122s40.004-89.122 89.156-89.122c49.084 0 89.054 39.97 89.054 89.122s-39.97 89.122-89.054 89.122zM991.13 336.457h-34.133c0 99.328-80.828 180.122-180.156 180.122-71.68 0-136.465-42.428-165.137-108.066l-31.266 13.653c34.065 78.097 111.172 128.546 196.403 128.546 118.17 0 214.289-96.119 214.289-214.255zM357.137 421.79c-94.106 0-170.667 76.561-170.667 170.667s76.561 170.667 170.667 170.667 170.667-76.561 170.667-170.667-76.561-170.667-170.667-170.667zM357.137 728.99c-75.298 0-136.533-61.235-136.533-136.533s61.235-136.533 136.533-136.533 136.533 61.235 136.533 136.533-61.235 136.533-136.533 136.533zM681.404 131.657h-34.133c0 159.983-130.15 290.133-290.133 290.133s-290.133-130.15-290.133-290.133h-34.133c0 178.79 145.476 324.267 324.267 324.267s324.267-145.476 324.267-324.267z" />
<glyph unicode="&#xe943;" glyph-name="oa-task" data-tags="列表页_办理任务" d="M448.071 951.937h575.929v-143.982h-575.929v143.982zM448.071 519.992h575.929v-143.982h-575.929v143.982zM16.126 951.937h143.982v-143.982h-143.982v143.982zM448.071 88.045h575.929v-143.982h-575.929v143.982zM16.126 88.045h143.982v-143.982h-143.982v143.982zM172.418 346.349l-172.418 86.173 32.251 64.432 115.545-57.809 126.344 189.553 59.897-39.954z" />
<glyph unicode="&#xe944;" glyph-name="rename" data-tags="列表页_重命名" d="M885.706 621.102l-201.038 201.328 94.585 94.729c38.357 38.282 101.025 42.118 134.82 8.686l75.19-74.97c34.737-35.1 30.756-95.596-8.686-134.964l-94.873-94.8zM786.853 822.43l98.853-98.998 43.711 43.637c12.592 12.522 13.533 27.717 8.537 32.709l-74.97 74.756c-9.045 9.264-23.156 0.867-32.564-8.537l-43.567-43.567zM250.318 186.969l182.511 383.838 302.786 302.786 201.254-201.254-312.772-309.66-373.778-175.707zM488.483 524.132l-87.492-186.345 186.565 87.637 246.992 246.847-98.928 98.928-247.135-247.061zM940.778-63.276h-940.778v940.778h325.653v-72.367h-253.287v-796.042h796.042v253.287h72.367z" />
<glyph unicode="&#xe945;" glyph-name="cust-repeat" data-tags="列表页_客户去重" d="M976.001 687.938c26.496 0.063 47.999-21.375 47.999-47.999v0c0-26.367-21.504-47.873-47.999-47.936l-160.001 0.063c-26.624 0-47.999 21.569-47.999 47.936v0c-0.128 26.561 21.375 47.999 47.999 47.999l160.001-0.063zM149.504 333.184c-91.52-82.111-149.504-200.833-149.504-333.184h64.001c0 114.688 50.752 217.536 130.753 287.936l-45.248 45.248zM746.241 333.313l-45.248-45.248c80.129-70.463 131.008-173.313 131.008-288.065h64.001c0 132.417-58.112 251.201-149.76 333.313zM447.872 384c-141.12 0-255.873 114.816-255.873 256s114.753 256 255.873 256c141.249 0 256.128-114.816 256.128-256s-114.88-256-256.128-256zM447.872 832.002c-105.728 0-191.872-86.145-191.872-192.001s86.145-192.001 191.872-192.001c105.856 0 192.129 86.145 192.129 192.001s-86.271 192.001-192.129 192.001z" />
<glyph unicode="&#xe946;" glyph-name="split-order" data-tags="列表页_拆单-06" d="M950.857 594.287h-877.713v365.714h73.144v-292.57h731.428v292.57h73.144zM73.143 374.858h877.713v-438.857h-73.144v365.714h-731.428v-365.714h-73.144zM0.001 521.145h36.571v-73.144h-36.571v73.144zM851.602 448.002h-67.949v73.144h67.949v-73.144zM647.826 448.002h-67.949v73.144h67.949v-73.144zM444.051 448.002h-67.949v73.144h67.949v-73.144zM240.349 448.002h-67.949v73.144h67.949v-73.144zM987.428 521.145h36.571v-73.144h-36.571v73.144z" />
<glyph unicode="&#xe947;" glyph-name="entrust" data-tags="详情页_出口委托" d="M568.661 167.755c-48.383 0-97.153 19.491-147.863 39.758-41.957 16.775-85.294 34.066-133.374 43.38-99.825 19.189-255.235 18.154-256.83 18.068-0.043 0-0.129 0-0.173 0-11.815 0-21.475 9.53-21.56 21.388s9.487 21.647 21.388 21.733c6.339 0 161.403 1.078 265.326-18.844 52.134-10.090 99.48-29.021 141.179-45.709 70.762-28.245 126.69-50.538 180.333-26.476 109.657 49.158 307.929 157.479 346.652 200.773 18.413 20.612 0.948 54.592-6.727 67.312-15.869 1.423-86.371-2.716-349.282-106.682-101.119-40.232-231 52.004-236.477 55.971-9.703 6.943-11.815 20.396-4.916 30.055 6.9 9.616 20.354 11.859 30.098 4.916 1.121-0.863 115.737-82.189 195.468-50.883 368.859 145.966 389.988 108.881 397.967 95.040 18.801-25.614 42.906-83.267 6.037-124.491-47.907-53.557-263.687-167.742-361.184-211.38-21.949-9.832-43.983-13.928-66.062-13.928zM599.881 386.337c-2.716 0-5.563 0.734-8.106 2.2-7.762 4.485-10.349 14.359-5.908 22.078 8.796 15.309 29.84 60.887 21.173 87.363-2.501 7.675-7.33 12.851-15.222 16.343-72.617 31.91-128.63 70.633-178.090 104.828-60.974 42.086-109.27 75.204-156.53 70.978-133.374-12.375-212.674-124.405-213.45-125.526-5.045-7.33-15.178-9.185-22.466-4.053-7.33 5.088-9.142 15.178-4.053 22.466 3.536 5.132 88.829 125.526 236.951 139.239 59.55 5.606 111.597-30.703 178.005-76.583 48.252-33.29 103.017-71.107 172.787-101.767 16.214-7.158 27.597-19.577 32.945-35.92 14.618-44.889-20.008-106.725-24.018-113.581-3.019-5.132-8.451-8.064-14.014-8.064z" />
<glyph unicode="&#xe948;" glyph-name="pro-classify" data-tags="列表页_产品分类" d="M332.8 89.601c-5.274 0-10.547 1.638-15.002 4.865l-307.2 221.85c-6.656 4.813-10.599 12.544-10.599 20.736s3.943 15.974 10.599 20.736l307.2 221.85c7.782 5.684 18.074 6.451 26.675 2.047 8.55-4.352 13.927-13.159 13.927-22.733v-110.95c0-14.131-11.469-25.6-25.6-25.6s-25.6 11.469-25.6 25.6v60.826l-237.875-171.775 237.875-171.775v60.826c0 14.131 11.469 25.6 25.6 25.6s25.6-11.469 25.6-25.6v-110.899c0-9.625-5.375-18.431-13.927-22.784-3.687-1.894-7.68-2.816-11.674-2.816zM537.6 200.55h-204.799c-14.131 0-25.6 11.469-25.6 25.6s11.469 25.6 25.6 25.6h204.799c14.131 0 25.6-11.469 25.6-25.6s-11.469-25.6-25.6-25.6zM691.2 311.449c-3.994 0-7.987 0.922-11.674 2.816-8.55 4.403-13.927 13.209-13.927 22.784v110.95c0 14.131 11.469 25.6 25.6 25.6s25.6-11.469 25.6-25.6v-60.826l237.875 171.775-237.875 171.775v-60.826c0-14.131-11.469-25.6-25.6-25.6s-25.6 11.418-25.6 25.549v110.95c0 9.625 5.375 18.431 13.927 22.784 8.499 4.403 18.842 3.635 26.675-2.047l307.2-221.85c6.656-4.813 10.599-12.544 10.599-20.736s-3.943-15.974-10.599-20.736l-307.2-221.85c-4.454-3.277-9.728-4.915-15.002-4.915zM691.2 422.4h-358.399c-14.131 0-25.6 11.469-25.6 25.6s11.469 25.6 25.6 25.6h358.399c14.131 0 25.6-11.469 25.6-25.6s-11.469-25.6-25.6-25.6zM691.2 644.249h-204.799c-14.131 0-25.6 11.469-25.6 25.6s11.469 25.6 25.6 25.6h204.799c14.131 0 25.6-11.469 25.6-25.6s-11.469-25.6-25.6-25.6z" />
<glyph unicode="&#xe949;" glyph-name="print" data-tags="详情页_打印" d="M572.236 568.47h180.706v-60.236h-180.706v60.236zM271.060 929.882h481.882v-60.236h-481.882v60.236zM933.646 749.176h-843.294c-49.814 0-90.353-40.539-90.353-90.353v-361.412c0-49.814 40.539-90.353 90.353-90.353h120.47v60.236h-120.47c-16.565 0-30.117 13.492-30.117 30.117v361.412c0 16.625 13.554 30.117 30.117 30.117h843.294c16.565 0 30.117-13.492 30.117-30.117v-361.412c0-16.625-13.554-30.117-30.117-30.117h-120.47v-60.236h120.47c49.814 0 90.353 40.539 90.353 90.353v361.412c0 49.814-40.539 90.353-90.353 90.353zM752.94-33.882h-481.882c-49.814 0-90.353 40.539-90.353 90.353v240.94c0 49.814 40.539 90.353 90.353 90.353h481.882c49.814 0 90.353-40.539 90.353-90.353v-240.94c0-49.814-40.539-90.353-90.353-90.353zM271.060 327.53c-16.565 0-30.117-13.492-30.117-30.117v-240.94c0-16.625 13.554-30.117 30.117-30.117h481.882c16.565 0 30.117 13.492 30.117 30.117v240.94c0 16.625-13.554 30.117-30.117 30.117h-481.882z" />
<glyph unicode="&#xe94a;" glyph-name="payment" data-tags="列表页_付款" d="M864 64h-703.999c-88.192 0-160 71.744-160 160v447.999c0 88.255 71.809 160 160 160h703.999c88.192 0 160-71.744 160-160v-447.999c0-88.255-71.809-160-160-160zM160.003 767.999c-52.928 0-96-43.072-96-96v-447.999c0-52.928 43.072-96 96-96h703.999c52.928 0 96 43.072 96 96v447.999c0 52.928-43.072 96-96 96h-703.999zM32.002 640h959.998v-64.001h-959.998v64.001zM224.002 383.999h384v-64.001h-384v64.001z" />
<glyph unicode="&#xe94b;" glyph-name="assign-cust" data-tags="列表页_分派客户" d="M903.715 320.449l-45.802 30.498 99.917 149.903-99.917 149.849 45.802 30.553 120.286-180.402zM715.661 528.376h275.255v-55.052h-275.255v55.052zM385.245 392.95c-121.387 0-220.094 98.761-220.094 220.203s98.707 220.203 220.094 220.203c121.498 0 220.314-98.761 220.314-220.203s-98.816-220.203-220.314-220.203zM385.245 778.308c-90.944 0-165.043-74.099-165.043-165.153s74.099-165.153 165.043-165.153c91.054 0 165.264 74.099 165.264 165.153s-74.208 165.153-165.264 165.153zM385.356 392.95c182.164 0 330.306-148.142 330.306-330.306h55.052c0 212.497-172.915 385.356-385.356 385.356s-385.356-172.86-385.356-385.356h55.052c0 182.164 148.142 330.306 330.306 330.306z" />
<glyph unicode="&#xe94c;" glyph-name="product" data-tags="产品" d="M512.109-64c-4.238 0-8.401 0.73-12.42 2.192l-474.854 171.97c-14.464 5.186-24.108 18.922-24.108 34.336v558.573c0 11.908 5.772 23.085 15.56 29.88 9.717 6.868 22.428 8.473 33.386 4.456l474.854-171.97c14.464-5.261 24.108-18.995 24.108-34.336v-558.573c0-11.908-5.772-23.085-15.56-29.88-6.209-4.383-13.516-6.648-20.966-6.648zM73.783 170.065l401.798-145.45v480.917l-401.798 145.45v-480.917zM512.109-64c-7.452 0-14.757 2.264-20.966 6.648-9.79 6.793-15.56 17.972-15.56 29.88v558.573c0 15.341 9.644 29.075 24.108 34.336l474.854 171.97c11.104 4.017 23.669 2.41 33.386-4.456 9.79-6.793 15.56-17.972 15.56-29.88v-558.573c0-15.341-9.644-29.075-24.108-34.336l-474.854-171.97c-4.017-1.462-8.182-2.192-12.42-2.192zM548.637 505.53v-480.917l401.798 145.45v480.917l-401.798-145.45zM512.109 494.572c-4.238 0-8.401 0.73-12.42 2.192l-474.854 171.97c-13.952 5.040-23.451 17.972-24.108 32.802-0.584 14.83 7.743 28.564 21.186 34.773l474.854 219.163c9.496 4.456 20.382 4.529 30.026 0.218l474.854-208.716c13.589-5.991 22.21-19.506 21.844-34.263s-9.644-27.907-23.378-33.24l-474.854-182.344c-4.238-1.68-8.694-2.558-13.15-2.558zM133.25 707.16l378.495-136.977 379.225 145.671-378.568 166.418-379.152-175.112z" />
<glyph unicode="&#xe94d;" glyph-name="save" data-tags="保存" d="M1023.998-63.998h-1023.998v1023.998h877.247l146.752-146.752v-877.247zM64 0.003h895.999v786.75l-109.249 109.249h-786.75v-895.999zM127.999 511.105h767.999v-63.999h-767.999v63.999zM319.998-0.893v255.999h63.999l63.999-63.999v-192z" />
<glyph unicode="&#xe94e;" glyph-name="order-merge" data-tags="列表页_合单" d="M475.431 630.858h73.144v-438.857h-73.144v438.857zM705.538 385.609l-193.536 193.536-193.536-193.536-51.785 51.712 245.321 245.321 245.321-245.321zM914.287-63.999h-804.571c-60.489 0-109.714 49.151-109.714 109.714v438.857h73.144v-438.857c0-20.187 16.384-36.571 36.571-36.571h804.571c20.187 0 36.571 16.384 36.571 36.571v438.857h73.144v-438.857c0-60.561-49.225-109.714-109.714-109.714zM1024.001 630.858h-73.144v219.429c0 20.187-16.384 36.571-36.571 36.571h-804.571c-20.187 0-36.571-16.384-36.571-36.571v-219.429h-73.144v219.429c0 60.561 49.225 109.714 109.714 109.714h804.571c60.489 0 109.714-49.151 109.714-109.714v-219.429z" />
<glyph unicode="&#xe94f;" glyph-name="activity" data-tags="列表页_活动-38" d="M292.513 356.442l-70.548 18.676c52.163 197.344 210.477 204.931 315.169 209.82 18.166 0.948 35.529 1.678 51.652 3.357 102.722 10.798 165.537 41.803 216.824 106.879 39.032 49.611 65.148 105.931 81.564 149.997-33.706-14.154-74.779-28.745-115.489-36.186-70.255-12.767-162.764 1.313-291.019 44.648-95.791 32.028-190.705 32.1-282.265 0.219-55.664-19.333-92.069-44.504-101.846-51.798l-43.409 58.73c15.247 11.235 57.707 39.906 121.326 62.012 107.099 37.207 217.918 37.207 329.467 0 116.145-39.25 197.125-52.819 254.688-42.023 80.688 14.738 168.526 64.639 169.403 65.148 12.402 7.15 27.797 6.274 39.469-2.043 11.6-8.389 17.218-22.834 14.445-36.842-1.167-5.763-29.912-143.723-118.918-256.876-80.834-102.648-184.87-125.703-266.506-134.311-17.437-1.825-36.259-2.699-55.811-3.647-107.827-5.253-209.673-10.068-248.194-155.76zM421.644-63.999c-14.519 0-28.306 8.754-33.925 23.127l-341.067 867.513c-7.369 18.75 1.825 39.906 20.573 47.202 18.75 7.66 39.906-1.751 47.275-20.573l341.067-867.513c7.369-18.75-1.825-39.906-20.573-47.202-4.377-1.751-8.901-2.553-13.35-2.553z" />
<glyph unicode="&#xe950;" glyph-name="export" data-tags="详情页_导出" d="M877.661 155.397v-109.699c0-20.112-16.456-36.566-36.566-36.566h-658.192c-20.112 0-36.566 16.456-36.566 36.566v804.603c0 20.112 16.456 36.566 36.566 36.566h406.689l19.308-146.411h247.553l-219.544 219.544h-454.006c-60.48 0-109.699-49.291-109.699-109.699v-804.603c0-60.408 49.218-109.699 109.699-109.699h658.192c60.48 0 109.699 49.291 109.699 109.699v109.699h-73.133zM365.736 484.493h502.493v-73.133h-502.493v73.133zM767.963 265.096v365.661l182.832-182.832z" />
<glyph unicode="&#xe951;" glyph-name="to-pay" data-tags="列表页_转成付款申请" d="M841.138 813.711h-36.572v-73.141h36.572c60.49 0 109.713-49.151 109.713-109.713v-511.997c0-60.416-49.227-109.713-109.713-109.713h-511.997c-60.49 0-109.713 49.297-109.713 109.713v36.572h-73.141v-36.572c0-100.863 81.994-182.858 182.858-182.858h511.997c100.863 0 182.858 81.994 182.858 182.858v511.997c0 100.863-81.994 182.858-182.858 182.858zM146.287 734.427h438.853v-73.141h-438.853v73.141zM146.287 514.996h365.711v-73.141h-365.711v73.141zM621.712 155.43h-438.853c-100.863 0-182.858 81.994-182.858 182.858v438.853c0 100.863 81.994 182.858 182.858 182.858h438.853c100.863 0 182.858-81.994 182.858-182.858v-438.853c0-100.863-81.994-182.858-182.858-182.858zM182.859 886.853c-60.49 0-109.713-49.151-109.713-109.713v-438.853c0-60.416 49.227-109.713 109.713-109.713h438.853c60.49 0 109.713 49.297 109.713 109.713v438.853c0 60.561-49.227 109.713-109.713 109.713h-438.853z" />
<glyph unicode="&#xe952;" glyph-name="cust-merge" data-tags="列表页_客户合并" d="M511.961 408.615c-86.843 0-157.499 70.656-157.499 157.538s70.656 157.538 157.499 157.538c86.882 0 157.578-70.656 157.578-157.538s-70.695-157.538-157.578-157.538zM511.961 684.308c-65.103 0-118.114-53.012-118.114-118.154s53.012-118.154 118.114-118.154c65.142 0 118.193 53.012 118.193 118.154s-53.051 118.154-118.193 118.154zM512 408.615c130.324 0 236.308-105.984 236.308-236.308h39.385c0 152.025-123.707 275.692-275.692 275.692s-275.692-123.668-275.692-275.692h39.385c0 130.324 105.984 236.308 236.308 236.308zM745.511 702.818c-5.514 0.788-11.146 1.182-16.896 1.182v39.385c7.601 0 15.084-0.551 22.41-1.575l-5.514-38.991zM791.001 441.147l-15.596 36.155c9.334 4.057 18.156 9.295 26.23 15.636l24.34-30.956c-10.713-8.428-22.489-15.478-34.974-20.834zM854.449 491.087l-31.468 23.67c6.144 8.192 11.225 17.172 15.084 26.585l36.47-14.887c-5.12-12.603-11.855-24.497-20.086-35.367zM884.894 565.839l-39.070 5.002c0.63 4.923 0.945 9.925 0.945 15.006 0 5.317-0.315 10.476-0.985 15.557l39.030 5.199c0.906-6.814 1.339-13.745 1.339-20.795 0-6.735-0.433-13.391-1.26-19.968zM837.868 630.902c-3.899 9.413-9.019 18.314-15.202 26.466l31.35 23.828c8.231-10.831 15.084-22.725 20.283-35.289l-36.431-15.006zM801.201 679.070c-8.113 6.302-16.975 11.5-26.309 15.518l15.478 36.234c12.485-5.317 24.261-12.288 35.052-20.677l-24.222-31.074zM728.615 428.308v39.385c5.75 0 11.382 0.433 16.896 1.182l5.514-38.991c-7.326-1.024-14.809-1.575-22.41-1.575zM746.772 427.599c-5.986 0.473-12.052 0.709-18.156 0.709v39.385c7.129 0 14.218-0.276 21.228-0.827l-3.072-39.266zM961.654 231.542c-2.166 12.839-5.435 25.561-9.689 37.888l37.218 12.879c4.962-14.375 8.783-29.263 11.303-44.229l-38.833-6.538zM936.133 305.191c-6.262 11.461-13.509 22.41-21.543 32.689l30.956 24.3c9.374-11.934 17.841-24.734 25.127-38.046l-34.54-18.944zM887.966 366.513c-9.649 8.822-20.047 16.857-30.956 23.906l21.425 33.044c12.721-8.231 24.852-17.605 36.116-27.884l-26.585-29.066zM822.548 408.891c-11.973 5.199-24.418 9.413-37.022 12.524l9.413 38.242c14.769-3.623 29.302-8.546 43.284-14.612l-15.675-36.155zM964.923 192h39.385v-19.692h-39.385v19.692zM278.489 702.818l-5.514 38.991c7.326 1.024 14.809 1.575 22.41 1.575v-39.385c-5.75 0-11.382-0.433-16.896-1.182zM232.999 441.147c-12.485 5.356-24.261 12.367-34.974 20.834l24.34 30.956c8.074-6.341 16.896-11.579 26.23-15.636l-15.596-36.155zM169.551 491.087c-8.192 10.87-14.966 22.804-20.086 35.367l36.431 14.887c3.86-9.452 8.94-18.393 15.084-26.585l-31.429-23.67zM139.106 565.839c-0.827 6.577-1.26 13.233-1.26 20.007 0 7.010 0.433 13.942 1.339 20.716l39.030-5.199c-0.67-5.041-0.985-10.201-0.985-15.478 0-5.12 0.315-10.161 0.945-15.045l-39.070-5.002zM186.132 630.902l-36.431 15.006c5.199 12.564 12.012 24.458 20.283 35.289l31.35-23.828c-6.183-8.153-11.303-17.054-15.202-26.466zM222.799 679.070l-24.222 31.074c10.791 8.389 22.567 15.36 35.052 20.677l15.478-36.234c-9.374-3.978-18.235-9.216-26.309-15.518zM295.385 428.308c-7.601 0-15.084 0.551-22.41 1.575l5.514 38.991c5.514-0.788 11.146-1.182 16.896-1.182v-39.385zM277.228 427.599l-3.033 39.266c6.971 0.551 14.060 0.827 21.189 0.827v-39.385c-6.105 0-12.17-0.236-18.156-0.709zM62.346 231.542l-38.833 6.577c2.521 14.927 6.341 29.814 11.303 44.229l37.218-12.879c-4.254-12.327-7.522-25.088-9.689-37.927zM87.867 305.191l-34.54 18.905c7.286 13.312 15.714 26.112 25.127 38.046l30.956-24.3c-8.034-10.24-15.281-21.228-21.543-32.65zM136.034 366.513l-26.585 29.066c11.264 10.279 23.394 19.653 36.116 27.884l21.425-33.044c-10.91-7.050-21.307-15.084-30.956-23.906zM201.452 408.891l-15.636 36.155c13.942 6.026 28.514 10.949 43.284 14.612l9.413-38.242c-12.642-3.111-25.088-7.326-37.061-12.524zM19.692 192h39.385v-19.692h-39.385v19.692z" />
<glyph unicode="&#xe953;" glyph-name="reset" data-tags="列表页_清除" d="M603.496 11.534c-85.949 0-233.575 55.926-266.144 68.649l-72.669 28.496 75.517 19.797c0.916 0.254 90.123 23.865 130.883 49.209 29.515 18.37 49.922 35.978 64.066 50.887-79.232-17.656-214.595-43.203-281.868-29.975-121.521 24.020-202.585 119.179-205.995 123.199l-34.757 41.371 54.042 0.408c1.221 0 125.134 1.424 237.747 40.966 132.207 46.41 194.188 125.947 194.798 126.76l40.558-30.736c-2.851-3.766-70.937-92.26-218.513-144.011-71.091-24.987-144.725-35.724-194.342-40.304 31.45-25.546 79.18-56.385 136.279-67.682 70.735-13.993 255.355 26.918 320.44 43.865l39.796 10.38-8.497-40.252c-1.372-6.514-16.335-65.39-116.89-128.084-19.186-11.958-46.053-23.155-71.448-32.263 76.282-25.241 164.673-47.834 196.579-37.758 147.932 46.513 194.239 295.81 194.696 298.355l50.073-9.008c-2.086-11.502-52.516-282.273-229.504-337.894-9.718-3.053-21.526-4.377-34.859-4.377zM894.88 438.381c-88.034 39.234-267.873 117.906-356.013 157.091 7.276 16.997 18.778 29.82 34.095 38.98 25.954 15.214 84.371 33.535 124.115 26.157 37.758-7.022 145.692-55.672 186.555-86.459 30.074-22.696 27.429-83.101 15.011-125.49-0.967-3.307-2.34-6.463-3.766-10.281v0 0 0zM892.335 645.395l-102.795 46.866c0 0 65.696 104.318 97.399 151.544 8.243 12.366 15.214 17.097 30.228 14.86 13.893-2.034 25.749-7.938 34.603-18.727 5.955-7.176 6.566-14.655 4.172-24.020-12.466-48.039-63.61-170.525-63.61-170.525v0 0 0z" />
<glyph unicode="&#xe954;" glyph-name="delete" data-tags="列表页_删除-22" d="M1024.001 740.571h-234.57l-146.286 146.286h-262.288l-146.286-146.286h-234.57v73.141h204.287l146.286 146.286h322.851l146.286-146.286h204.287zM850.142-63.998h-676.274l-64 691.489 72.849 6.656 57.856-625.005h542.864l57.856 625.005 72.849-6.656zM621.91 636.034l72.418-10.285-72.717-512.074-72.418 10.285 72.717 512.074zM401.943 636.062l73.121-511.898-72.403-10.34-73.121 511.898 72.403 10.34z" />
<glyph unicode="&#xe955;" glyph-name="booking" data-tags="详情页_订舱指令" d="M384.375 1.311c-17.612 0-31.906 14.294-31.906 31.906v829.566c0 17.612 14.294 31.906 31.906 31.906s31.906-14.294 31.906-31.906v-829.566c0-17.612-14.294-31.906-31.906-31.906zM639.625 1.311c-17.612 0-31.906 14.294-31.906 31.906v829.566c0 17.612 14.294 31.906 31.906 31.906s31.906-14.294 31.906-31.906v-829.566c0-17.612-14.294-31.906-31.906-31.906zM384.375 639.439h-191.439c-17.612 0-31.906 14.294-31.906 31.906s14.294 31.906 31.906 31.906h191.439c17.612 0 31.906-14.294 31.906-31.906s-14.294-31.906-31.906-31.906zM384.375 256.561h-191.439c-17.612 0-31.906 14.294-31.906 31.906s14.294 31.906 31.906 31.906h191.439c17.612 0 31.906-14.294 31.906-31.906s-14.294-31.906-31.906-31.906zM831.064 575.625h-191.439c-17.612 0-31.906 14.294-31.906 31.906s14.294 31.906 31.906 31.906h191.439c17.612 0 31.906-14.294 31.906-31.906s-14.294-31.906-31.906-31.906zM831.064 192.75h-191.439c-17.612 0-31.906 14.294-31.906 31.906s14.294 31.906 31.906 31.906h191.439c17.612 0 31.906-14.294 31.906-31.906s-14.294-31.906-31.906-31.906zM990.596-62.502c-4.914 0-9.764 1.149-14.294 3.381l-120.861 60.43h-686.88l-120.925-60.43c-9.955-4.849-21.632-4.404-31.013 1.403s-15.123 16.081-15.123 27.12v957.191c0 11.040 5.744 21.313 15.123 27.12 9.381 5.87 21.122 6.317 31.013 1.403l120.925-60.43h686.88l120.925 60.43c9.827 4.914 21.632 4.467 31.013-1.403 9.381-5.807 15.123-16.081 15.123-27.12v-957.191c0-11.040-5.744-21.313-15.123-27.12-5.105-3.19-10.976-4.786-16.783-4.786zM161.030 65.123h701.941c4.977 0 9.827-1.149 14.294-3.381l81.425-40.712v853.942l-81.425-40.712c-4.467-2.233-9.316-3.381-14.294-3.381h-701.941c-4.977 0-9.827 1.149-14.294 3.381l-81.425 40.712v-853.942l81.425 40.712c4.467 2.233 9.316 3.381 14.294 3.381z" />
<glyph unicode="&#xe956;" glyph-name="apply" data-tags="列表页_申请" d="M947.127 521.287l-331.702 34.012c-17.262 1.755-30.866 15.433-32.695 32.695l-34.012 331.702 72.778 7.46 30.94-302.079 302.079-30.94-7.388-72.85zM877.714-64h-219.429c-20.187 0-36.571 16.384-36.571 36.571s16.384 36.571 36.571 36.571h219.429c20.187 0 36.571 16.458 36.571 36.571v496.86l-344.283 344.283h-423.716c-20.187 0-36.571-16.384-36.571-36.571v-804.572c0-20.115 16.384-36.571 36.571-36.571h219.429c20.187 0 36.571-16.384 36.571-36.571s-16.384-36.571-36.571-36.571h-219.429c-60.489 0-109.714 49.225-109.714 109.714v804.572c0 60.489 49.225 109.714 109.714 109.714h438.858c9.728 0 19.017-3.876 25.892-10.679l365.714-365.714c6.803-6.875 10.679-16.165 10.679-25.892v-511.999c0-60.489-49.225-109.714-109.714-109.714zM731.429 155.429c-9.362 0-18.724 3.584-25.892 10.679l-193.537 193.537-193.537-193.537c-14.263-14.263-37.449-14.263-51.712 0s-14.263 37.449 0 51.712l219.429 219.429c14.263 14.263 37.449 14.263 51.712 0l219.429-219.429c14.263-14.263 14.263-37.449 0-51.712-7.169-7.094-16.53-10.679-25.892-10.679zM512-64c-20.187 0-36.571 16.384-36.571 36.571v438.858c0 20.187 16.384 36.571 36.571 36.571s36.571-16.384 36.571-36.571v-438.858c0-20.187-16.384-36.571-36.571-36.571z" />
<glyph unicode="&#xe957;" glyph-name="oa-pick" data-tags="列表页_拾取" d="M905.436-64h-786.872c-65.316 0-118.564 53.248-118.564 118.564v181.98c0 20.187 16.384 36.571 36.571 36.571s36.571-16.384 36.571-36.571v-181.98c0-25.088 20.334-45.422 45.422-45.422h786.872c25.088 0 45.422 20.334 45.422 45.422v576.292c0 20.187 16.384 36.571 36.571 36.571s36.571-16.384 36.571-36.571v-576.292c0-65.316-53.248-118.564-118.564-118.564zM702.025 303.835c-306.47 0-555.739 249.272-555.739 555.739v63.854c0 20.187 16.384 36.571 36.571 36.571s36.571-16.384 36.571-36.571v-63.854c0-266.094 216.502-482.598 482.598-482.598 20.187 0 36.571-16.384 36.571-36.571s-16.384-36.571-36.571-36.571zM386.706 151.551c-13.75 0-26.917 7.754-33.133 21.138-8.558 18.285-0.657 40.083 17.7 48.566l282.111 131.584-131.731 282.258c-8.558 18.285-0.657 40.008 17.7 48.566 18.139 8.558 40.008 0.732 48.566-17.7l147.164-315.466c4.097-8.777 4.608-18.798 1.244-27.941-3.291-9.143-10.166-16.603-18.945-20.625l-315.319-147.017c-4.901-2.268-10.166-3.365-15.36-3.365z" />
<glyph unicode="&#xe958;" glyph-name="complete" data-tags="列表页_收货完成" d="M330.937 46.965c-0.363 0-0.726 0-1.088 0-10.589 0.363-20.597 5.294-27.271 13.634l-290.105 362.632c-12.474 15.666-9.937 38.439 5.657 50.985 15.666 12.474 38.439 9.863 50.985-5.657l263.416-329.27 624.163 693.57c13.345 14.94 36.263 16.174 51.205 2.683 14.868-13.491 16.1-36.336 2.683-51.276l-652.739-725.264c-6.817-7.688-16.608-12.040-26.908-12.040z" />
<glyph unicode="&#xe959;" glyph-name="search" data-tags="列表页_搜索" d="M409.6 141.013c-109.436 0-212.261 42.586-289.608 119.93s-119.992 180.231-119.992 289.547c0 109.374 42.647 212.198 119.992 289.547 77.286 77.286 180.168 119.93 289.547 119.93 109.436 0 212.261-42.586 289.547-119.93 159.666-159.666 159.666-419.489 0-579.094-77.286-77.344-180.050-119.93-289.485-119.93zM409.542 868.975c-85.050 0-165.065-33.121-225.183-93.302-60.177-60.177-93.359-140.132-93.359-225.183s33.182-165.065 93.359-225.244c60.177-60.119 140.194-93.24 225.302-93.24 85.050 0 165.002 33.121 225.121 93.24 124.179 124.179 124.179 326.187 0 450.424-60.177 60.177-140.132 93.302-225.244 93.302zM1000.279 45.53c23.72-23.72 23.72-62.058 0-85.776v0c-23.72-23.72-62.058-23.72-85.776 0l-128.666 128.666c-23.779 23.72-23.779 62.058 0 85.837v0c23.72 23.72 61.997 23.72 85.776 0l128.666-128.727z" />
<glyph unicode="&#xe95a;" glyph-name="pay-apply" data-tags="列表页_付款申请" d="M524.928 198.143c-105.28 0-158.272 55.681-160.768 58.368-12.031 12.928-11.264 33.217 1.727 45.248 12.928 12.031 33.217 11.264 45.248-1.727 1.601-1.664 47.936-48.256 145.983-35.776 40.64 5.12 60.287 22.592 65.791 58.24 4.735 31.553-0.704 64.768-72.064 93.184-25.343 10.176-50.88 17.409-75.52 24.448-40.193 11.456-74.943 21.312-99.071 41.216-31.808 25.984-45.76 65.856-38.209 109.375 7.68 44.479 35.904 81.408 71.872 94.208 138.56 49.345 240.705-57.345 241.728-58.368 12.096-12.863 11.456-33.152-1.407-45.248-12.928-12.16-33.152-11.52-45.248 1.407-0.704 0.769-75.584 76.801-173.631 41.92-13.695-4.864-26.687-24.128-30.272-44.865-2.047-11.84-2.753-33.855 15.745-48.96 13.887-11.456 44.096-20.031 76.032-29.12 25.023-7.104 53.311-15.168 81.728-26.561 85.121-33.92 122.687-88.512 111.616-162.24-6.913-45.12-33.537-101.055-121.023-112.128-14.207-1.792-27.648-2.624-40.256-2.624zM512 672c-17.664 0-31.999 14.336-31.999 31.999v64.001c0 17.664 14.336 31.999 31.999 31.999s31.999-14.336 31.999-31.999v-64.001c0-17.664-14.336-31.999-31.999-31.999zM512 96.001c-17.664 0-31.999 14.336-31.999 31.999v64.001c0 17.664 14.336 31.999 31.999 31.999s31.999-14.336 31.999-31.999v-64.001c0-17.664-14.336-31.999-31.999-31.999zM512-64c-282.305 0-512 229.695-512 512s229.695 512 512 512 512-229.695 512-512-229.695-512-512-512zM512 895.999c-247.041 0-447.999-200.96-447.999-447.999s200.96-447.999 447.999-447.999 447.999 200.96 447.999 447.999-200.96 447.999-447.999 447.999z" />
<glyph unicode="&#xe95b;" glyph-name="oa-back" data-tags="列表页_退回" d="M693.247 186.453c-19.254 0-34.881 15.627-34.881 34.881v60.905c0 253.803-206.501 460.305-460.305 460.305-19.254 0-34.881 15.627-34.881 34.881s15.627 34.881 34.881 34.881c292.242 0 530.068-237.757 530.068-530.068v-60.905c0-19.254-15.627-34.881-34.881-34.881zM338.427 446.675c-13.116 0-25.675 7.395-31.603 20.161l-140.366 300.894c-3.907 8.371-4.395 17.93-1.187 26.651 3.139 8.72 9.696 15.766 18.069 19.673l300.754 140.226c17.372 8.162 38.16 0.699 46.323-16.883 8.162-17.441 0.627-38.231-16.883-46.323l-269.151-125.506 125.646-269.22c8.162-17.441 0.627-38.16-16.883-46.323-4.815-2.303-9.767-3.347-14.72-3.347zM887.263-61.557h-750.525c-62.299 0-113.087 50.788-113.087 113.087v173.573c0 19.254 15.627 34.881 34.881 34.881s34.881-15.627 34.881-34.881v-173.573c0-23.93 19.394-43.324 43.324-43.324h750.525c23.93 0 43.324 19.394 43.324 43.324v549.673c0 19.254 15.627 34.881 34.881 34.881s34.881-15.627 34.881-34.881v-549.673c0-62.299-50.788-113.087-113.087-113.087z" />
<glyph unicode="&#xe95c;" glyph-name="lose-order" data-tags="详情页_丢单" d="M607.713 639.426h-382.852c-17.611 0-31.904 14.293-31.904 31.904s14.293 31.904 31.904 31.904h382.852c17.611 0 31.904-14.293 31.904-31.904s-14.293-31.904-31.904-31.904zM799.139 108.028l-31.904-31.904v-42.879c0-17.611-14.358-31.904-31.904-31.904h-44.092c-23.928-20.929-53.599-31.904-83.525-31.904s-59.597 10.975-83.525 31.904h-426.943c-17.548 0-31.904 14.293-31.904 31.904v829.512c0 17.611 14.358 31.904 31.904 31.904h638.086c17.548 0 31.904-14.293 31.904-31.904v-361.923l31.904-31.904 31.904 31.904v361.923c0 52.77-42.943 95.713-95.713 95.713h-638.086c-52.77 0-95.713-42.943-95.713-95.713v-829.512c0-52.77 42.943-95.713 95.713-95.713h638.086c52.77 0 95.713 42.943 95.713 95.713v42.879l-31.904 31.904zM586.784 256.574h-361.923c-17.611 0-31.904-14.293-31.904-31.904s14.293-31.904 31.904-31.904h298.114l63.809 63.809zM480.096 479.904h-255.234c-17.611 0-31.904-14.293-31.904-31.904s14.293-31.904 31.904-31.904h272.846c-11.357 19.717-17.611 41.667-17.611 63.809zM607.713 65.148c-8.167 0-16.334 3.127-22.588 9.316-12.443 12.443-12.443 32.67 0 45.113l382.852 382.852c12.443 12.443 32.67 12.443 45.113 0s12.443-32.67 0-45.113l-382.852-382.852c-6.189-6.189-14.358-9.316-22.525-9.316zM990.565 65.148c-8.167 0-16.334 3.127-22.588 9.316l-382.852 382.852c-12.443 12.443-12.443 32.67 0 45.113s32.67 12.443 45.113 0l382.852-382.852c12.443-12.443 12.443-32.67 0-45.113-6.189-6.189-14.358-9.316-22.525-9.316z" />
<glyph unicode="&#xe95d;" glyph-name="new-sample" data-tags="详情页_添加样品" d="M948.608 960h-745.088c-41.663 0-75.52-33.855-75.52-75.455v-84.544h64.001v84.544c0 6.336 5.184 11.456 11.52 11.456h745.152c6.207 0 11.328-5.12 11.328-11.456v-745.152c0-6.272-5.12-11.391-11.391-11.391h-84.607v-64.001h84.607c41.6 0 75.392 33.855 75.392 75.455v745.088c0 41.6-33.792 75.455-75.392 75.455zM820.609-64h-745.088c-41.663 0-75.52 33.855-75.52 75.455v745.088c0 41.6 33.855 75.455 75.52 75.455h745.152c41.537 0 75.328-33.855 75.328-75.455v-745.152c0-41.537-33.792-75.392-75.392-75.392zM75.52 768c-6.336 0-11.52-5.12-11.52-11.456v-745.152c0-6.272 5.184-11.391 11.52-11.391h745.152c6.207 0 11.328 5.12 11.328 11.456v745.088c0 6.336-5.12 11.456-11.391 11.456h-745.088zM704 352h-512c-17.664 0-31.999 14.336-31.999 31.999s14.336 31.999 31.999 31.999h512c17.664 0 31.999-14.336 31.999-31.999s-14.336-31.999-31.999-31.999zM447.999 96.001c-17.664 0-31.999 14.336-31.999 31.999v512c0 17.664 14.336 31.999 31.999 31.999s31.999-14.336 31.999-31.999v-512c0-17.664-14.336-31.999-31.999-31.999z" />
<glyph unicode="&#xe95e;" glyph-name="back" data-tags="详情页_返回" d="M416.006 126.677c-8.383 0-16.639 3.264-22.719 9.472l-383.976 387.751c-5.952 6.015-9.343 14.206-9.28 22.719s3.456 16.639 9.472 22.591l383.976 380.2c9.151 9.088 22.719 11.776 34.813 6.784 11.967-4.992 19.71-16.639 19.71-29.567v-227.25c0-17.663-14.335-31.997-31.997-31.997s-31.997 14.335-31.997 32.062v150.519l-306.732-303.724 306.732-309.741v144.502c0 17.663 14.335 31.997 31.997 31.997s31.997-14.335 31.997-31.997v-222.322c0-12.991-7.808-24.638-19.838-29.567-3.903-1.601-8.063-2.432-12.159-2.432zM984.418-62.624c-12.928 0-24.767 7.808-29.693 20.030-89.722 222.322-302.060 376.040-540.766 391.719-17.663 1.152-30.974 16.382-29.887 34.046 1.215 17.663 18.239 30.207 33.981 29.822 222.833-14.655 424.741-138.295 541.406-324.523-12.416 302.253-243.249 549.085-546.653 579.163-17.534 1.727-30.399 17.408-28.606 35.005s16.767 30.013 35.005 28.67c344.81-34.302 604.762-321.707 604.762-668.629 0-29.758-2.496-60.86-7.871-97.978-2.112-14.335-13.503-25.407-27.903-27.198-1.215-0.128-2.559-0.128-3.776-0.128z" />
<glyph unicode="&#xe95f;" glyph-name="modify" data-tags="列表页_修改-05" d="M916.468 642.958l78.576 78.576c28.957 28.882 28.957 75.76 0 104.719l-104.719 104.79c-29.029 28.882-75.76 28.957-104.79-0.075l-78.428-78.5 209.361-209.508zM183.38 328.748l471.179 471.311 209.39-209.33-471.179-471.311-209.39 209.33zM146.561 260.67l-146.56-324.67 324.747 146.637z" />
<glyph unicode="&#xe960;" glyph-name="move-to" data-tags="列表页_移动到" d="M984.795 591.691h-945.586c-14.693 0-28.004 8.875-33.607 22.478s-2.473 29.24 7.856 39.644l290.95 290.95c14.182 14.182 37.24 14.182 51.427 0s14.182-37.24 0-51.427l-228.834-228.904h857.794c20.074 0 36.369-16.291 36.369-36.369s-16.291-36.369-36.369-36.369zM693.846-62.944c-9.31 0-18.619 3.563-25.75 10.619-14.182 14.182-14.182 37.24 0 51.427l228.904 228.904h-857.794c-20.074 0-36.369 16.291-36.369 36.369s16.291 36.369 36.369 36.369h945.586c14.693 0 28.004-8.875 33.607-22.478s2.473-29.24-7.856-39.644l-290.95-290.95c-7.127-7.056-16.441-10.619-25.75-10.619z" />
<glyph unicode="&#xe961;" glyph-name="approval" data-tags="列表页_查看审批记录" d="M694.86 777.141c0-100.989-81.868-182.858-182.858-182.858s-182.858 81.868-182.858 182.858c0 100.989 81.868 182.858 182.858 182.858s182.858-81.868 182.858-182.858zM457.146 667.427h109.714v-365.714h-109.714v365.714zM1024.001 228.569c0-40.449-32.695-73.144-73.144-73.144h-877.713c-40.449 0-73.144 32.695-73.144 73.144v0c0 40.449 32.695 73.144 73.144 73.144h877.713c40.449 0 73.144-32.695 73.144-73.144v0zM1024.001-27.43c0-20.115-16.384-36.571-36.571-36.571h-950.856c-20.187 0-36.571 16.458-36.571 36.571v0c0 20.261 16.384 36.571 36.571 36.571h950.856c20.187 0 36.571-16.311 36.571-36.571v0z" />
<glyph unicode="&#xe962;" glyph-name="zoom-in" data-tags="详情页_放大" d="M73.143 630.858h-73.144v329.143h329.143v-73.144h-255.999zM1023.999 630.858h-73.144v255.999h-255.999v73.144h329.143zM1023.999-63.999h-329.143v73.144h255.999v255.999h73.144zM329.142-63.999h-329.143v329.143h73.144v-255.999h255.999zM219.43 740.57h73.144v-73.144h-73.144v73.144zM292.571 667.429h73.144v-73.144h-73.144v73.144zM365.715 594.285h73.144v-73.144h-73.144v73.144zM585.144 374.856h73.144v-73.144h-73.144v73.144zM658.285 301.715h73.144v-73.144h-73.144v73.144zM731.429 228.571h73.144v-73.144h-73.144v73.144zM585.144 594.285h73.144v-73.144h-73.144v73.144zM658.285 667.429h73.144v-73.144h-73.144v73.144zM731.429 740.57h73.144v-73.144h-73.144v73.144zM219.43 228.571h73.144v-73.144h-73.144v73.144zM292.571 301.715h73.144v-73.144h-73.144v73.144zM365.715 374.856h73.144v-73.144h-73.144v73.144z" />
<glyph unicode="&#xe963;" glyph-name="vote" data-tags="列表页_投票" d="M987.427 594.285h-219.429v-73.144h182.858v-512h-877.715v512h182.858v73.144h-219.429c-20.187 0-36.571-16.384-36.571-36.571v-585.144c0-20.187 16.384-36.571 36.571-36.571h950.858c20.187 0 36.571 16.384 36.571 36.571v585.144c0 20.187-16.384 36.571-36.571 36.571zM767.998 301.715h-512c-20.187 0-36.571 16.384-36.571 36.571v585.144c0 20.187 16.384 36.571 36.571 36.571h512c20.187 0 36.571-16.384 36.571-36.571v-585.144c0-20.187-16.384-36.571-36.571-36.571zM292.569 374.856h438.858v512h-438.858v-512zM841.142 301.715h-658.287c-20.187 0-36.571 16.384-36.571 36.571s16.384 36.571 36.571 36.571h658.287c20.187 0 36.571-16.384 36.571-36.571s-16.384-36.571-36.571-36.571z" />
<glyph unicode="&#xe964;" glyph-name="to-paid-2" data-tags="列表页_待付-30" d="M502.454-54.452c-277.068 0-502.454 225.458-502.454 502.454s225.387 502.454 502.454 502.454c187.918 0 358.752-103.506 445.748-270.248 9.116-17.585 2.369-39.263-15.218-48.452-17.585-9.043-39.191-2.369-48.452 15.218-74.579 142.984-221.008 231.704-382.080 231.704-237.518 0-430.676-193.158-430.676-430.676s193.158-430.676 430.676-430.676c161.431 0 308.004 89.077 382.512 232.42 9.116 17.658 30.722 24.62 48.379 15.289 17.585-9.116 24.405-30.793 15.289-48.379-86.925-167.245-257.903-271.111-446.18-271.111zM513.866 216.586c-97.404 0-147.004 52.111-149.301 54.625-13.494 14.5-12.634 37.254 1.937 50.677 14.5 13.567 37.254 12.705 50.748-1.866 1.292-1.292 40.914-40.699 124.751-29.716 40.987 5.096 49.6 25.266 52.829 46.226 4.451 29.286-4.163 53.403-60.223 75.871-22.898 9.116-45.938 15.648-67.041 21.677-36.895 10.479-68.764 19.525-91.518 38.258-30.148 24.764-43.928 64.027-36.822 105.013 7.394 42.35 34.455 77.665 69.123 90.011 102.285 36.463 191.435-19.308 224.381-53.906 13.638-14.356 13.064-37.11-1.292-50.748-14.356-13.567-37.037-13.135-50.748 1.292-0.645 0.718-65.175 65.175-148.224 35.818-8.686-3.087-19.452-16.867-22.539-34.67-1.578-9.043-2.154-25.913 11.628-37.254 11.342-9.26 37.684-16.796 65.678-24.764 23.328-6.676 48.738-13.926 74.005-24.117 79.819-31.87 115.063-83.479 104.51-153.177-9.331-60.724-50.101-98.553-114.846-106.665-12.993-1.795-25.338-2.584-37.037-2.584zM502.525 641.734c-19.811 0-35.889 16.078-35.889 35.889v57.495c0 19.811 16.078 35.889 35.889 35.889s35.889-16.078 35.889-35.889v-57.495c0-19.811-16.078-35.889-35.889-35.889zM502.454 124.995c-19.811 0-35.889 16.078-35.889 35.889v57.351c0 19.811 16.078 35.889 35.889 35.889s35.889-16.078 35.889-35.889v-57.351c0-19.811-16.078-35.889-35.889-35.889zM1024 663.626c0-59.463-48.206-107.669-107.669-107.669s-107.669 48.206-107.669 107.669c0 59.463 48.206 107.669 107.669 107.669s107.669-48.206 107.669-107.669z" />
<glyph unicode="&#xe965;" glyph-name="zoom-out" data-tags="详情页_缩小" d="M438.856 521.144h-329.143v73.144h255.999v255.999h73.144zM914.285 521.144h-329.143v329.143h73.144v-255.999h255.999zM658.285 45.715h-73.144v329.143h329.143v-73.144h-255.999zM438.856 45.715h-73.144v255.999h-255.999v73.144h329.143zM146.286 813.714h73.144v-73.144h-73.144v73.144zM73.143 886.857h73.144v-73.144h-73.144v73.144zM0.001 959.999h73.144v-73.144h-73.144v73.144zM950.857 9.143h73.144v-73.144h-73.144v73.144zM877.714 82.286h73.144v-73.144h-73.144v73.144zM804.57 155.43h73.144v-73.144h-73.144v73.144zM950.857 959.999h73.144v-73.144h-73.144v73.144zM877.714 886.857h73.144v-73.144h-73.144v73.144zM804.57 813.714h73.144v-73.144h-73.144v73.144zM146.286 155.43h73.144v-73.144h-73.144v73.144zM73.143 82.286h73.144v-73.144h-73.144v73.144zM0.001 9.143h73.144v-73.144h-73.144v73.144z" />
<glyph unicode="&#xe966;" glyph-name="fee-apply" data-tags="详情页_费用申请" d="M512-64c-282.323 0-512 229.678-512 512s229.678 512 512 512 512-229.678 512-512-229.678-512-512-512zM512 899.766c-249.134 0-451.766-202.632-451.766-451.766s202.632-451.766 451.766-451.766 451.766 202.632 451.766 451.766-202.632 451.766-451.766 451.766zM524.047 212.841c-99.026 0-148.902 52.405-151.19 54.874-11.324 12.168-10.602 31.263 1.626 42.586 12.168 11.324 31.263 10.662 42.586-1.626 1.566-1.566 45.297-45.176 137.396-33.612 38.249 4.879 56.741 21.263 61.921 54.874 4.457 29.635-0.662 60.777-67.885 87.703-24.215 9.698-48.671 16.625-71.017 22.95-37.828 10.782-70.475 20.058-93.184 38.671-29.998 24.576-43.128 62.163-36.021 103.063 7.289 41.803 33.852 76.559 67.704 88.666 130.47 46.561 226.546-53.971 227.509-55.056 11.324-12.168 10.721-31.202-1.445-42.586-12.107-11.385-31.142-10.782-42.586 1.445-0.723 0.723-71.078 72.523-163.298 39.454-12.89-4.639-25.179-22.768-28.551-42.226-1.927-11.143-2.591-31.925 14.818-46.201 13.011-10.662 41.442-18.734 71.5-27.286 23.551-6.687 50.175-14.276 76.92-24.998 80.233-32.105 115.532-83.486 105.051-152.697-9.276-60.777-48.671-97.22-113.845-105.533-13.372-1.747-26.083-2.47-38.009-2.47zM512 658.823c-16.625 0-30.117 13.492-30.117 30.117v60.236c0 16.625 13.492 30.117 30.117 30.117s30.117-13.492 30.117-30.117v-60.236c0-16.625-13.492-30.117-30.117-30.117zM512 116.706c-16.625 0-30.117 13.492-30.117 30.117v60.236c0 16.625 13.492 30.117 30.117 30.117s30.117-13.492 30.117-30.117v-60.236c0-16.625-13.492-30.117-30.117-30.117z" />
<glyph unicode="&#xe967;" glyph-name="pay-1" data-tags="详情页_付款" d="M524.928 198.143c-105.28 0-158.272 55.681-160.768 58.368-12.031 12.928-11.264 33.217 1.727 45.185 12.928 12.16 33.217 11.391 45.248-1.664 1.601-1.664 47.936-47.936 145.983-35.776 40.64 5.12 60.287 22.592 65.791 58.24 4.735 31.488-0.704 64.768-72.064 93.121-25.343 10.176-50.88 17.409-75.52 24.511-40.193 11.456-74.943 21.312-99.071 41.216-31.808 25.92-45.76 65.856-38.209 109.375 7.68 44.416 35.904 81.408 71.872 94.208 138.56 49.536 240.705-57.28 241.728-58.368 12.096-12.863 11.456-33.152-1.407-45.185-12.928-12.096-33.152-11.585-45.248 1.407-0.704 0.769-75.584 76.736-173.631 41.857-13.695-4.864-26.687-24.191-30.272-44.865-2.047-11.84-2.753-33.855 15.745-48.96 13.887-11.52 44.096-20.031 76.032-29.183 25.023-7.104 53.311-15.168 81.728-26.561 85.121-33.855 122.687-88.449 111.616-162.177-6.913-45.12-33.537-101.055-121.023-112.128-14.207-1.856-27.648-2.624-40.256-2.624zM512 672c-17.664 0-31.999 14.336-31.999 31.999v64.001c0 17.664 14.336 31.999 31.999 31.999s31.999-14.336 31.999-31.999v-64.001c0-17.664-14.336-31.999-31.999-31.999zM512 96.001c-17.664 0-31.999 14.336-31.999 31.999v64.001c0 17.664 14.336 31.999 31.999 31.999s31.999-14.336 31.999-31.999v-64.001c0-17.664-14.336-31.999-31.999-31.999zM512-64c-282.305 0-512 229.695-512 512s229.695 512 512 512 512-229.695 512-512-229.695-512-512-512zM512 895.999c-247.041 0-447.999-201.024-447.999-447.999s200.96-447.999 447.999-447.999 447.999 201.024 447.999 447.999-200.96 447.999-447.999 447.999z" />
<glyph unicode="&#xe968;" glyph-name="pay-record" data-tags="详情页_付款记录" d="M416.968-58.836c-109.984 0-213.377 42.89-291.178 120.627s-120.691 181.194-120.691 291.178 42.828 213.442 120.627 291.241c12.354 12.354 32.438 12.354 44.792 0s12.354-32.438 0-44.792c-65.826-65.826-102.065-153.381-102.065-246.449s36.239-180.56 102.065-246.386c135.895-135.958 356.94-135.833 492.772 0 12.354 12.354 32.438 12.354 44.792 0s12.354-32.438 0-44.792c-77.736-77.736-181.194-120.627-291.114-120.627zM898.4 643.639l-190.633 190.95 89.456 89.646c35.922 35.795 94.525 39.85 126.202 8.616l73.174-73.111c32.5-32.817 28.636-89.394-8.49-126.329l-89.711-89.773zM797.286 834.589l101.177-101.367 44.919 44.982c12.924 12.861 15.079 30.030 8.363 36.808l-72.922 72.794c-11.214 10.897-26.418 1.964-36.808-8.426l-44.729-44.792zM287.534 223.599l172.895 363.591 292.002 292.002 190.823-190.823-300.807-298.019-354.913-166.749zM509.15 546.326l-89.584-190.698 190.887 89.711 243.154 243.092-101.241 101.241-243.219-243.344z" />
</font>
</defs>
</svg>
